<svg width="330" height="330" viewBox="0 0 330 330" fill="none" xmlns="http://www.w3.org/2000/svg">
<circle cx="165" cy="165" r="165" fill="white"/>
<g opacity="0.5">
<path d="M224.802 225.458C224.802 225.458 223.176 229.556 219.72 231.736C219.024 230.396 217.594 228.201 215.999 227.308C215.999 227.308 220.098 223.687 221.708 220.928C223.558 223.581 224.802 225.458 224.802 225.458Z" fill="#E3F0FF"/>
<path d="M252.084 225.378C251.223 223.655 248.937 219.621 247.299 218.366C247.299 218.366 251.85 215.448 253.041 211.344L254.21 213.002C254.799 213.737 255.498 214.376 256.283 214.895C259.101 222.108 255.252 224.852 252.084 225.378Z" fill="#E3F0FF"/>
<path d="M127.578 100.25C128.493 101.521 129.359 104.583 130.13 105.354C130.901 106.124 133.984 103.849 132.788 100.729C131.592 97.6082 126.611 98.9 127.578 100.25Z" fill="#E3F0FF"/>
<path d="M72.8078 115.938C72.8809 117.358 72.6599 118.778 72.1586 120.109C71.6573 121.44 70.8866 122.653 69.8947 123.672C69.068 124.569 68.0979 125.322 67.024 125.9C63.6377 127.893 58.747 129.127 52.3147 129.414C51.0637 129.467 49.88 129.467 48.7636 129.414C47.2229 129.356 45.6891 129.178 44.1759 128.882C41.4337 128.412 38.83 127.339 36.5528 125.74C35.9763 124.723 35.5874 123.61 35.4046 122.455C34.8652 119.168 35.5519 115.797 37.3343 112.982C38.7111 110.781 39.7637 110.191 39.7637 110.191C43.1712 107.182 48.4553 105.237 55.4777 105.035C56.6128 105 57.7489 105.034 58.8799 105.136C60.3716 105.275 61.848 105.545 63.2922 105.944C66.0424 106.685 68.6115 107.982 70.8409 109.755C72.0413 111.601 72.7209 113.737 72.8078 115.938Z" fill="#E3F0FF"/>
<path d="M182.912 47.3774C180.967 47.5156 184.757 49.2433 187.516 49.961C190.275 50.6786 193.039 51.7471 193.076 55.0005C193.114 58.2539 196.601 56.2923 196.601 56.2923C196.601 56.2923 198.058 46.3089 182.912 47.3774Z" fill="#E3F0FF"/>
<path d="M171.712 65.9143C167.847 66.1588 164.684 66.7383 160.016 69.7365C155.349 72.7347 155.551 66.8286 159.666 65.3136C163.78 63.7985 169.654 62.3313 170.356 60.9598C171.058 59.5883 173.641 59.567 173.641 59.567C173.333 61.1618 174.141 62.3526 175.364 63.1659V63.1978C175.364 63.1978 175.576 65.6751 171.712 65.9143Z" fill="#E3F0FF"/>
<path d="M131.204 58.8599C137.376 64.1759 143.489 67.0252 149.767 65.5102C156.045 63.9951 151.5 62.8522 151.5 62.8522C151.5 62.8522 162.015 60.4813 161.032 57.5362C160.048 54.5911 154.652 61.183 141.363 58.2326C128.073 55.2822 127.764 55.8936 131.204 58.8599Z" fill="#E3F0FF"/>
<path d="M120.981 56.7177C118.733 57.2493 122.906 60.0349 123.039 63.1925C123.171 66.3502 123.825 72.9793 130.986 71.9161C138.147 70.8529 133.181 66.9031 128.86 65.8559C126.547 65.3136 127.089 55.2717 120.981 56.7177Z" fill="#E3F0FF"/>
<path d="M219.864 170.182C216.961 171.426 212.671 162.075 211.326 160.735C209.981 159.396 206.638 164.919 203.166 165.573C202.215 165.748 201.614 165.573 201.237 165.228C202.184 164.639 203.029 163.901 203.74 163.043C206.93 159.385 209.444 157.647 214.096 156.78C214.41 156.721 214.721 156.642 215.026 156.547C217.057 162.819 218.513 167.072 219.864 170.182Z" fill="#E3F0FF"/>
<path d="M193.853 186.486C190.02 186.343 189.717 178.512 189.068 173.877C188.345 168.561 185.879 170.687 181.849 170.629C180.196 170.597 179.25 170.097 178.718 169.518C178.915 169.433 179.111 169.342 179.308 169.241C181.025 168.353 186.102 166.876 190.876 166.583C190.892 166.573 191.859 178.432 193.853 186.486Z" fill="#E3F0FF"/>
<path d="M190.631 116.772C186.99 118.851 188.542 121.738 192.332 120.398C192.332 120.398 189.249 126.777 193.225 125.326C197.202 123.875 197.765 115.901 196.511 114.386C195.256 112.87 192.965 115.438 190.631 116.772Z" fill="#E3F0FF"/>
<path d="M176.251 119.196C175.539 120.403 169.404 116.629 171.435 118.526C173.466 120.424 171.217 122.248 169.904 122.487C168.591 122.726 176.14 129.6 173.354 130.365C170.569 131.131 164.381 125.985 162.956 121.328C161.532 116.671 163.568 117.261 161.361 115.363C159.767 113.992 160.096 112.828 160.096 112.828C162.377 112.142 164.508 111.483 165.901 110.988L166.571 110.749C166.741 110.749 167.943 111.844 175.13 113.721C182.487 115.645 176.959 117.995 176.251 119.196Z" fill="#E3F0FF"/>
<path d="M174.673 108.118C176.431 108.656 178.31 108.656 180.068 108.118C183.061 107.225 185.113 106.183 186.299 107.161C187.484 108.139 191.976 110.181 193.21 108.836C194.443 107.491 192.492 104.966 191.386 104.992C190.28 105.019 194.719 103.195 193.603 102.09C192.487 100.984 186.458 101.202 174.673 108.118Z" fill="#E3F0FF"/>
<path d="M159.634 97.7783L157.507 98.8415C157.482 97.6011 157.482 96.4086 157.507 95.2639C157.033 95.3643 156.569 95.5067 156.12 95.6891C156.12 95.6891 156.067 92.9355 154.557 92.0743C153.047 91.2131 148.497 85.1369 150.798 85.5675C153.1 85.9981 152.446 85.2432 152.292 83.1434C152.138 81.0436 154.243 79.8103 155.046 81.8516C155.849 83.893 155.684 84.5096 156.332 84.3448C156.981 84.18 157.592 78.8959 159.65 80.512C161.707 82.1281 159.634 97.7783 159.634 97.7783Z" fill="#E3F0FF"/>
<path d="M258.692 91.9679C258.692 93.2417 258.356 94.493 257.719 95.5958C257.081 96.6987 256.164 97.6141 255.061 98.2501C253.957 98.886 252.705 99.22 251.431 99.2183C250.158 99.2167 248.907 98.8795 247.805 98.2407C246.628 96.962 245.95 95.3034 245.894 93.5668C245.837 91.8303 246.406 90.1311 247.497 88.7788C248.588 87.4264 250.128 86.5107 251.837 86.1984C253.547 85.8861 255.311 86.198 256.81 87.0771C258.028 88.4136 258.7 90.1593 258.692 91.9679V91.9679Z" fill="#E3F0FF"/>
<path d="M180.802 68.6522C182.15 68.6522 183.242 67.5597 183.242 66.2121C183.242 64.8645 182.15 63.7721 180.802 63.7721C179.454 63.7721 178.362 64.8645 178.362 66.2121C178.362 67.5597 179.454 68.6522 180.802 68.6522Z" fill="#E3F0FF"/>
<path d="M192.529 70.7413C191.851 71.769 191.071 72.7254 190.201 73.596C189.894 73.4973 189.617 73.3253 189.392 73.095C189.167 72.8647 189.002 72.583 188.911 72.2744C188.82 71.9658 188.805 71.6395 188.868 71.324C188.932 71.0085 189.071 70.7132 189.275 70.4638C189.478 70.2144 189.739 70.0185 190.036 69.8929C190.332 69.7673 190.655 69.716 190.975 69.7434C191.296 69.7707 191.605 69.8759 191.876 70.0498C192.147 70.2237 192.371 70.4611 192.529 70.7413V70.7413Z" fill="#E3F0FF"/>
<path d="M156.875 113.381C156.875 113.53 156.875 113.684 156.875 113.827C153.685 114.774 150.783 115.667 149.868 116.113C148.954 116.56 147.46 116.772 145.69 116.895C145.044 115.839 144.705 114.624 144.712 113.386C144.712 109.819 147.433 106.922 150.799 106.922C154.164 106.922 156.875 109.793 156.875 113.381Z" fill="#E3F0FF"/>
<path d="M198.361 98.7725H198.079C196.152 98.7679 194.288 98.0847 192.815 96.8429C191.342 95.601 190.353 93.8798 190.022 91.9815C189.692 90.0832 190.041 88.1291 191.007 86.4623C191.974 84.7956 193.497 83.5227 195.309 82.8671C196.845 84.8712 197.866 86.769 198.196 89.1931C198.552 92.3739 198.607 95.5813 198.361 98.7725V98.7725Z" fill="#E3F0FF"/>
<path d="M169.67 69.8905C169.671 71.5952 169.14 73.2577 168.152 74.6466C167.164 76.0355 165.767 77.0818 164.156 77.6398C162.545 78.1978 160.801 78.2397 159.165 77.7597C157.529 77.2798 156.084 76.3018 155.03 74.9619C156.168 74.021 157.241 73.1651 158.166 72.4528C161.391 69.8647 165.3 68.2707 169.415 67.8651C169.583 68.5272 169.669 69.2074 169.67 69.8905Z" fill="#E3F0FF"/>
<path d="M194.427 200.659C194.43 203.066 193.504 205.381 191.843 207.123L189.6 205.246C184.911 201.328 183.067 199.564 180.685 195.103C180.414 194.572 180.084 193.854 179.712 192.95C181.271 191.863 183.127 191.28 185.028 191.281C186.261 191.279 187.483 191.52 188.622 191.99C189.762 192.461 190.798 193.151 191.671 194.022C192.544 194.893 193.237 195.927 193.71 197.066C194.182 198.205 194.426 199.426 194.427 200.659Z" fill="#E3F0FF"/>
<path d="M223.335 186.332C223.336 187.729 222.941 189.098 222.196 190.279C221.45 191.461 220.386 192.407 219.125 193.009C214.633 189.011 211.215 186.098 210.38 185.354C209.876 184.867 209.408 184.343 208.982 183.786C209.578 182.15 210.731 180.776 212.239 179.907C213.747 179.037 215.514 178.727 217.228 179.031C218.942 179.335 220.494 180.234 221.611 181.569C222.728 182.905 223.339 184.591 223.335 186.332V186.332Z" fill="#E3F0FF"/>
<path d="M231.198 231.465C231.118 235.111 227.519 236.749 223.426 241.565C219.54 246.137 213.905 249.05 209.753 249.885C209.051 248.428 208.823 246.009 209.965 244.537C212.825 240.858 217.854 236.621 218.328 233.825C218.328 233.825 224.962 232.677 226.052 226.957C226.162 227.065 226.285 227.16 226.418 227.238C226.961 227.563 229.64 229.195 231.198 231.465Z" fill="#327BED"/>
<path d="M267.564 243.208C267.489 244.106 267.333 244.996 267.096 245.866C267.096 245.866 264.438 249.651 259.957 250.039C258.442 250.201 256.91 249.995 255.492 249.438C256.105 246.76 256.123 243.98 255.545 241.294C254.093 235.149 252.047 228.073 252.047 228.073C252.047 228.073 259.324 227.254 259.968 219.158C267.607 231.172 267.702 241.443 267.564 243.208Z" fill="#327BED"/>
<path d="M113.571 105.609C113.571 105.609 113.433 109.261 116.021 110.34" stroke="#FF523B" stroke-linecap="round" stroke-linejoin="round"/>
<path d="M125.037 118.441L116.952 119.058C115.74 117.936 114.294 114.805 114.458 112.227L122.751 110.606C122.751 110.606 123.012 115.619 125.037 118.441Z" fill="#FF523B"/>
<path d="M113.714 110.935C113.108 111.105 112.609 111.244 112.231 111.355C110.264 111.82 108.251 112.068 106.229 112.094L105.996 111.286L112.343 108.362C112.516 109.343 112.997 110.244 113.714 110.935V110.935Z" fill="#FF523B"/>
<path d="M160.596 68.0354C164.03 65.404 166.119 64.7608 169.102 64.3887C170.951 64.1237 172.654 63.2346 173.928 61.8689" stroke="#327BED" stroke-linecap="round" stroke-linejoin="round"/>
<path d="M171.196 48.8182C173.211 47.905 175.294 47.1496 177.426 46.5589C188.197 43.6776 198.759 47.9198 197.935 57.5257" stroke="#327BED" stroke-linecap="round" stroke-linejoin="round"/>
<path d="M114.097 54.6552C123.841 51.3593 134.914 50.0994 137.562 52.2524C141.341 55.3303 146.482 58.908 155.471 56.5742C158.273 55.846 162.914 52.8531 168.23 50.1951" stroke="#327BED" stroke-linecap="round" stroke-linejoin="round"/>
<path d="M110.961 58.7697C116.085 57.664 120.412 59.514 121.258 62.879C122.363 67.2966 119.828 74.1276 125.718 76.9291C130.975 79.4276 140.868 77.4129 139.991 77.5936C139.991 77.5936 137.168 79.9167 140.044 81.0384C142.421 81.9687 145.775 81.0384 145.775 81.0384" stroke="#327BED" stroke-linecap="round" stroke-linejoin="round"/>
<path d="M123.038 58.4506C124.995 60.577 124.995 61.4435 124.995 64.1121C124.995 66.7807 125.712 69.9278 130.05 70.3105" stroke="#327BED" stroke-linecap="round" stroke-linejoin="round"/>
<path d="M141.357 60.0401C145.328 61.5392 153.393 61.2734 158.172 58.4453" stroke="#327BED" stroke-linecap="round" stroke-linejoin="round"/>
<path d="M134.33 58.8599C138.933 62.8681 142.383 64.7074 148.454 64.0589" stroke="#327BED" stroke-linecap="round" stroke-linejoin="round"/>
<path d="M177.006 58.2434L177.676 54.5541C177.676 54.5541 183.486 50.8648 190.402 52.6297C197.319 54.3946 197.967 57.6959 197.967 57.6959C197.967 57.6959 198.424 62.1347 195.756 64.293C197.467 59.6894 188.042 53.0603 177.006 58.2434Z" fill="#327BED" stroke="#327BED" stroke-linecap="round" stroke-linejoin="round"/>
<path d="M181.557 56.7177C180.318 57.8074 178.66 61.098 178.66 61.098C177.421 56.9888 174.035 57.5469 173.641 59.567C173.333 61.1618 174.141 62.3526 175.364 63.1659C175.701 63.3883 176.056 63.5804 176.427 63.7401" stroke="#327BED" stroke-linecap="round" stroke-linejoin="round"/>
<path d="M175.385 60.0454C175.896 60.6223 176.371 61.2314 176.804 61.8688" stroke="#327BED" stroke-linecap="round" stroke-linejoin="round"/>
<path d="M195.373 65.3136C197.499 65.3136 197.675 69.0667 193.076 69.8853" stroke="#327BED" stroke-linecap="round" stroke-linejoin="round"/>
<path d="M195.777 64.2928C194.94 66.5558 193.851 68.7172 192.529 70.7358C191.851 71.7635 191.071 72.7199 190.201 73.5905C189.932 73.8582 189.65 74.1119 189.355 74.3507C188.465 75.0764 187.422 75.5908 186.304 75.8551V75.8551C182.864 76.7004 179.127 75.1056 177.766 72.4476C177.703 72.32 177.644 72.1906 177.591 72.0595" stroke="#327BED" stroke-linecap="round" stroke-linejoin="round"/>
<path d="M183.242 59.0034C183.887 58.9091 184.546 58.9902 185.149 59.238C185.753 59.4859 186.278 59.8914 186.671 60.4121" stroke="#327BED" stroke-linecap="round" stroke-linejoin="round"/>
<path d="M176.092 65.3136C175.151 69.7631 171.961 81.3413 172.264 86.551C172.264 86.551 178.442 82.5002 183.242 78.5451" stroke="#327BED" stroke-linecap="round" stroke-linejoin="round"/>
<path d="M186.304 75.8657L183.247 78.5237C177.58 76.8598 177.766 72.5113 177.766 72.4475C179.127 75.1055 182.864 76.7003 186.304 75.8657Z" fill="#327BED" stroke="#327BED" stroke-linecap="round" stroke-linejoin="round"/>
<path d="M185.299 47.9941C188.648 48.5257 192.848 49.7218 194.576 51.9811" stroke="#327BED" stroke-linecap="round" stroke-linejoin="round"/>
<path d="M191.519 62.7513C192.896 62.2197 193.842 62.5493 194.273 63.1925" stroke="#327BED" stroke-linecap="round" stroke-linejoin="round"/>
<path d="M184.417 69.7895C185.253 69.9324 186.104 69.9575 186.947 69.8639C186.947 69.8639 187.208 66.3979 189.339 64.3672" stroke="#327BED" stroke-linecap="round" stroke-linejoin="round"/>
<path d="M181.753 69.8854C181.856 70.4357 182.139 70.9361 182.558 71.3077C182.977 71.6793 183.507 71.9008 184.066 71.9373" stroke="#327BED" stroke-linecap="round" stroke-linejoin="round"/>
<path d="M185.908 64.3474C186.177 63.6866 186.161 63.0558 185.873 62.9385C185.585 62.8211 185.133 63.2617 184.864 63.9224C184.595 64.5832 184.611 65.214 184.899 65.3314C185.187 65.4487 185.639 65.0081 185.908 64.3474Z" fill="#327BED"/>
<path d="M192.222 66.7435C192.491 66.0827 192.475 65.4519 192.187 65.3346C191.898 65.2172 191.447 65.6578 191.178 66.3186C190.909 66.9793 190.924 67.6101 191.213 67.7275C191.501 67.8448 191.953 67.4042 192.222 66.7435Z" fill="#327BED"/>
<path d="M172.796 67.5994C171.68 67.6685 170.563 67.7323 169.421 67.8598C165.305 68.2654 161.397 69.8594 158.172 72.4475C157.242 73.1599 156.168 74.0423 155.035 74.9567C149.262 79.7411 141.745 86.5455 141.745 86.5455C141.745 86.5455 144.898 95.386 151.022 98.666C152.588 97.4697 154.293 96.4666 156.099 95.6784C156.548 95.4959 157.012 95.3536 157.486 95.2531" stroke="#327BED" stroke-linecap="round" stroke-linejoin="round"/>
<path d="M158.629 113.381C159.389 119.377 160.559 126.049 162.233 133.369" stroke="#327BED" stroke-linecap="round" stroke-linejoin="round"/>
<path d="M159.065 82.1758C158.172 85.4132 157.592 89.7936 157.47 95.2531C157.449 96.4014 157.449 97.5939 157.47 98.8308" stroke="#327BED" stroke-linecap="round" stroke-linejoin="round"/>
<path d="M124.24 108.4C126.871 107.815 129.513 107.278 131.725 106.89C138.226 105.758 148.204 103.44 152.069 101.515L156.545 99.2986L157.491 98.8308L159.618 97.7676C168.283 93.4882 181.036 87.1888 182.668 86.3116C184.975 85.0677 185.958 84.2225 187.941 84.3341" stroke="#327BED" stroke-linecap="round" stroke-linejoin="round"/>
<path d="M91.6476 114.975C96.012 111.058 97.7344 111.488 100.318 111.919C102.285 112.141 104.268 112.2 106.245 112.094C108.267 112.068 110.279 111.82 112.247 111.355C112.624 111.244 113.124 111.105 113.73 110.935" stroke="#327BED" stroke-linecap="round" stroke-linejoin="round"/>
<path d="M157.688 90.8834C157.688 90.8834 154.366 89.3311 153.27 87.4652" stroke="#327BED" stroke-linecap="round" stroke-linejoin="round"/>
<path d="M154.174 84.6744C154.174 84.6744 155.269 86.9284 156.109 87.7683" stroke="#327BED" stroke-linecap="round" stroke-linejoin="round"/>
<path d="M129.061 118.128C133.734 117.761 138.226 117.405 140.007 117.251C142.102 117.065 144.031 116.995 145.674 116.868C147.444 116.746 148.863 116.554 149.852 116.086C150.841 115.619 153.669 114.752 156.859 113.801L160.096 112.828C162.377 112.142 164.508 111.483 165.901 110.988L166.571 110.749C171.409 109.091 185.655 104.604 190.19 103.381" stroke="#327BED" stroke-linecap="round" stroke-linejoin="round"/>
<path d="M124.245 110.606C124.192 112.381 125.192 116.825 127.578 118.239" stroke="#FF523B" stroke-linecap="round" stroke-linejoin="round"/>
<path d="M164.583 95.3328C164.583 95.3328 170.25 102.244 170.797 109.362" stroke="#327BED" stroke-linecap="round" stroke-linejoin="round"/>
<path d="M148.406 112.318C148.938 109.766 149.932 108.565 150.134 108.899C150.597 109.66 150.054 114.215 152.26 110.133" stroke="#327BED" stroke-linecap="round" stroke-linejoin="round"/>
<path d="M134.261 106.422C134.261 106.422 144.361 99.4528 147.173 98.4161" stroke="#327BED" stroke-linecap="round" stroke-linejoin="round"/>
<path d="M114.942 104.636C118.291 102.138 123.841 99.15 125.914 98.4217C127.988 97.6934 140.023 88.4276 140.023 88.4276" stroke="#327BED" stroke-linecap="round" stroke-linejoin="round"/>
<path d="M96.0012 113.54C92.5724 116.225 87.9847 120.897 87.3628 122.093C86.7408 123.29 89.3881 123.747 90.2972 123.29C91.2062 122.832 94.5021 119.35 94.5021 119.35" stroke="#327BED" stroke-linecap="round" stroke-linejoin="round"/>
<path d="M92.413 121.477C92.4073 121.734 92.4526 121.989 92.5462 122.229C92.6398 122.468 92.7798 122.686 92.9583 122.871C93.1367 123.056 93.3499 123.204 93.5857 123.305C93.8215 123.407 94.0752 123.462 94.332 123.465C96.3096 123.603 96.9369 121.753 97.9469 122.471C98.957 123.189 100.679 124.598 102.364 123.465C103.624 122.615 103.8 123.114 104.826 123.465C105.852 123.816 114.054 119.569 114.054 119.569" stroke="#327BED" stroke-linecap="round" stroke-linejoin="round"/>
<path d="M248.592 85.3071C250.224 84.6128 252.054 84.5413 253.735 85.106C255.416 85.6707 256.832 86.8325 257.714 88.3712C258.596 89.9099 258.883 91.7187 258.521 93.4548C258.158 95.191 257.172 96.734 255.748 97.7915C254.324 98.8489 252.562 99.3475 250.795 99.1926C249.028 99.0377 247.38 98.2402 246.161 96.9511C244.943 95.662 244.24 93.9709 244.186 92.1982C244.131 90.4255 244.728 88.6942 245.864 87.3324" stroke="#327BED" stroke-linecap="round" stroke-linejoin="round"/>
<path d="M244.296 93.1801C244.296 93.1801 247.3 98.0868 250.096 96.4282C252.892 94.7696 247.884 86.3703 257.139 87.4973" stroke="#327BED" stroke-linecap="round" stroke-linejoin="round"/>
<path d="M264.3 78.8907C267.99 82.4418 269.696 86.2693 269.148 90.5009" stroke="#327BED" stroke-linecap="round" stroke-linejoin="round"/>
<path d="M271.679 79.571C273.933 82.9201 273.523 85.5143 273.316 86.6094" stroke="#327BED" stroke-linecap="round" stroke-linejoin="round"/>
<path d="M184.741 104.987C187.569 105.752 189.908 106.422 189.908 106.422" stroke="#327BED" stroke-linecap="round" stroke-linejoin="round"/>
<path d="M167.135 113.003C169.723 115.358 172.02 116.358 173.668 116.772" stroke="#327BED" stroke-linecap="round" stroke-linejoin="round"/>
<path d="M163.206 114.167C165.827 116.554 170.361 120.579 167.857 120.074C165.354 119.569 164.051 119.409 165.896 121.716C167.74 124.023 170.983 127.776 170.983 127.776" stroke="#327BED" stroke-linecap="round" stroke-linejoin="round"/>
<path d="M192.12 118.521C193.086 117.715 194.006 116.854 194.873 115.943" stroke="#327BED" stroke-linecap="round" stroke-linejoin="round"/>
<path d="M195.469 118.059C195.032 119.456 194.375 120.775 193.523 121.966" stroke="#327BED" stroke-linecap="round" stroke-linejoin="round"/>
<path d="M162.589 161.591C162.589 161.591 172.158 167.79 177.83 165.881C183.503 163.973 182.663 162.75 188.585 162.612C194.507 162.474 198.387 162.203 201.518 158.051C204.65 153.899 215 150.523 217.381 148.727" stroke="#FF523B" stroke-linecap="round" stroke-linejoin="round"/>
<path d="M190.892 166.573C190.892 166.573 191.854 178.432 193.853 186.486C194.522 189.192 195.315 191.467 196.224 192.717" stroke="#327BED" stroke-linecap="round" stroke-linejoin="round"/>
<path d="M217.955 231.762C211.624 223.948 198.217 212.481 191.843 207.128L189.6 205.252C184.911 201.334 183.067 199.569 180.685 195.109C180.414 194.577 180.084 193.859 179.712 192.956C176.852 186.008 171.595 169.236 171.286 169.129" stroke="#327BED" stroke-linecap="round" stroke-linejoin="round"/>
<path d="M199.296 196.034C202.234 198.299 205.022 200.753 207.642 203.38C210.275 206.069 212.75 208.909 215.053 211.886C216.477 213.688 217.907 215.607 219.226 217.441C220.124 218.685 220.969 219.881 221.719 220.95C223.564 223.608 224.808 225.468 224.808 225.468" stroke="#327BED" stroke-linecap="round" stroke-linejoin="round"/>
<path d="M213.538 226.834C212.95 226.221 212.34 225.603 211.709 224.979" stroke="#FF523B" stroke-linecap="round" stroke-linejoin="round"/>
<path d="M219.231 217.436C219.763 218.191 220.294 218.93 220.826 219.637" stroke="#FF523B" stroke-linecap="round" stroke-linejoin="round"/>
<path d="M224.802 225.458C224.802 225.458 223.176 229.556 219.72 231.736C219.005 232.204 218.224 232.562 217.403 232.799C214.213 238.955 208.626 242.214 207.807 244.101C206.744 246.552 207.132 250.039 208.695 251.777" stroke="#327BED" stroke-linecap="round" stroke-linejoin="round"/>
<path d="M184.922 197.565C186.517 196.725 188.111 196.549 187.527 197.325C186.942 198.102 185.523 198.447 185.932 199.25C186.341 200.053 189.579 198.527 189.579 198.527" stroke="#327BED" stroke-linecap="round" stroke-linejoin="round"/>
<path d="M211.709 224.979C211.938 224.83 216.042 221.348 217.743 218.818" stroke="#FF523B" stroke-linecap="round" stroke-linejoin="round"/>
<path d="M213.538 226.834C213.538 226.834 217.121 224.123 218.322 222.3" stroke="#FF523B" stroke-linecap="round" stroke-linejoin="round"/>
<path d="M209.965 251.751C210.311 251.849 210.67 251.889 211.029 251.868C214.463 251.761 220.597 247.583 225.318 242.129C228.725 238.174 231.421 237.254 232.266 233.889C231.655 230.412 227.152 227.669 226.418 227.249C226.285 227.171 226.162 227.076 226.052 226.968C225.472 226.436 224.988 225.522 224.808 225.458" stroke="#327BED" stroke-linecap="round" stroke-linejoin="round"/>
<path d="M231.198 231.465C231.118 235.111 227.519 236.749 223.426 241.565C219.54 246.137 213.905 249.05 209.753 249.884C209.519 249.932 209.296 249.975 209.072 250.007" stroke="#327BED" stroke-linecap="round" stroke-linejoin="round"/>
<path d="M217.429 235.787C218.369 235.814 219.292 236.045 220.135 236.462" stroke="white" stroke-linecap="round" stroke-linejoin="round"/>
<path d="M215.037 238.168C215.965 238.155 216.886 238.325 217.748 238.668" stroke="white" stroke-linecap="round" stroke-linejoin="round"/>
<path d="M216.042 235.058C216.042 235.058 206.085 233.591 207.148 230.465C208.254 227.201 216.478 234.399 216.478 234.399" stroke="#327BED" stroke-linecap="round" stroke-linejoin="round"/>
<path d="M214.564 236.993C212.049 239.077 207.807 238.588 206.537 237.525C204.65 235.967 207.387 233.028 210.55 233.729" stroke="#327BED" stroke-linecap="round" stroke-linejoin="round"/>
<path d="M271.424 238.668C275.145 238.562 275.793 238.296 278.17 238.992C280.546 239.689 288.855 238.992 288.855 238.992" stroke="#327BED" stroke-linecap="round" stroke-linejoin="round"/>
<path d="M235.333 236.462C238.071 236.728 239.421 235.542 242.042 235.787" stroke="#327BED" stroke-linecap="round" stroke-linejoin="round"/>
<path d="M238.05 239.306C241.239 239.242 241.771 238.907 243.818 239.54C245.864 240.172 251.52 239.348 251.52 239.348" stroke="#327BED" stroke-linecap="round" stroke-linejoin="round"/>
<path d="M188.664 237.823C189.239 237.929 189.823 237.979 190.408 237.971" stroke="#327BED" stroke-linecap="round" stroke-linejoin="round"/>
<path d="M192.061 238.163C192.901 238.216 194.916 238.795 197.622 238.694" stroke="#327BED" stroke-linecap="round" stroke-linejoin="round"/>
<path d="M157.22 245.318C159.145 245.163 161.079 245.163 163.004 245.318" stroke="#327BED" stroke-linecap="round" stroke-linejoin="round"/>
<path d="M168.581 244.377C174.731 244.324 178.123 243.702 179.744 244.117C181.215 244.555 182.768 244.645 184.279 244.377C186.363 244.117 187.511 244.011 189.908 244.792C192.306 245.573 195.331 244.755 196.288 244.383" stroke="#327BED" stroke-linecap="round" stroke-linejoin="round"/>
<path d="M175.64 247.482C177.353 247.438 179.061 247.667 180.701 248.162" stroke="#327BED" stroke-linecap="round" stroke-linejoin="round"/>
<path d="M216.834 252.66C219.598 252.66 220.225 251.517 222.442 251.857C224.659 252.197 225.483 252.388 227.429 251.735C229.998 251.025 232.682 250.825 235.328 251.145" stroke="#327BED" stroke-linecap="round" stroke-linejoin="round"/>
<path d="M229.422 253.388C231.952 252.686 233.547 253.462 235.339 253.388" stroke="#327BED" stroke-linecap="round" stroke-linejoin="round"/>
<path d="M238.9 252.659C239.946 252.785 241.002 252.785 242.047 252.659" stroke="#327BED" stroke-linecap="round" stroke-linejoin="round"/>
<path d="M248.469 224.974C247.746 223.294 246.856 221.691 245.811 220.189C239.762 211.902 227.545 200.52 219.12 193.014C214.628 189.017 211.209 186.103 210.375 185.359C209.87 184.872 209.403 184.348 208.977 183.791C205.787 179.82 199.94 170.708 198.074 166.317" stroke="#327BED" stroke-linecap="round" stroke-linejoin="round"/>
<path d="M215.032 156.552C217.057 162.814 218.514 167.067 219.864 170.182C222.144 175.45 224.117 177.459 228.024 180.415C230.817 182.626 233.391 185.101 235.711 187.804C238.783 191.281 241.441 194.843 243.339 197.336C245.466 200.116 247.48 203.295 250.712 208.032L250.755 208.09L251.51 209.185C251.988 209.882 252.493 210.605 253.025 211.365C253.301 211.758 253.557 212.162 253.881 212.577C253.982 212.726 254.093 212.874 254.2 213.029C254.786 213.763 255.484 214.402 256.268 214.921" stroke="#327BED" stroke-linecap="round" stroke-linejoin="round"/>
<path d="M267.075 245.85C267.075 245.85 264.417 249.635 259.936 250.023C258.42 250.185 256.889 249.979 255.47 249.422C254.613 249.029 253.801 248.546 253.046 247.981" stroke="#327BED" stroke-linecap="round" stroke-linejoin="round"/>
<path d="M256.725 237.658C257.964 236.945 260.536 236.515 261.584 236.898" stroke="white" stroke-linecap="round" stroke-linejoin="round"/>
<path d="M256.358 233.724C257.87 232.865 259.615 232.504 261.344 232.693" stroke="white" stroke-linecap="round" stroke-linejoin="round"/>
<path d="M256.273 214.916C259.085 222.124 255.252 224.867 252.084 225.399C251.543 225.49 250.993 225.517 250.446 225.479" stroke="#327BED" stroke-linecap="round" stroke-linejoin="round"/>
<path d="M252.047 229.269C254.614 229.663 256.982 230.888 258.787 232.756" stroke="white" stroke-linecap="round" stroke-linejoin="round"/>
<path d="M257.921 232.991C256.369 232.905 254.614 232.874 253.104 232.64" stroke="white" stroke-linecap="round" stroke-linejoin="round"/>
<path d="M257.868 231.874C257.868 231.874 256.034 225.856 258.192 225.495C260.637 225.085 259.744 232.602 259.744 232.602" stroke="white" stroke-linecap="round" stroke-linejoin="round"/>
<path d="M251.515 209.164C250.877 212.295 247.794 215.012 244.493 216.245C244.024 216.423 243.545 216.571 243.057 216.686" stroke="#FF523B" stroke-linecap="round" stroke-linejoin="round"/>
<path d="M249.99 206.942C249.172 208.504 248.077 209.903 246.757 211.073V211.073C245.089 212.575 243.083 213.652 240.91 214.214" stroke="#FF523B" stroke-linecap="round" stroke-linejoin="round"/>
<path d="M213.974 185.237C214.763 184.928 215.485 184.469 216.1 183.886" stroke="#327BED" stroke-linecap="round" stroke-linejoin="round"/>
<path d="M216.127 186.539C217.69 185.593 219.534 183.982 220.055 182.706" stroke="#327BED" stroke-linecap="round" stroke-linejoin="round"/>
<path d="M49.7045 99.8514C41.8102 100.606 33.4907 104.545 30.3011 112.955C28.1482 118.638 29.5675 127.893 41.5179 132.157C53.4682 136.42 67.0877 130.626 70.9046 128.632C75.5721 126.192 81.3558 123.476 87.2778 122.46" stroke="#327BED" stroke-linecap="round" stroke-linejoin="round"/>
<path d="M94.3055 114.975C94.3055 114.975 85.6245 115.263 80.771 112.961C75.9175 110.659 68.4273 102.972 59.1243 100.521C57.7942 100.177 56.4373 99.9459 55.0682 99.8302" stroke="#327BED" stroke-linecap="round" stroke-linejoin="round"/>
<path d="M68.2572 127.202C64.8709 129.196 59.9802 130.429 53.5479 130.716C39.5243 131.349 33.9585 125.049 33.1664 119.887C32.5962 116.598 33.2851 113.214 35.0961 110.409" stroke="#327BED" stroke-linecap="round" stroke-linejoin="round"/>
<path d="M37.5096 107.618C40.9172 104.609 46.2013 102.664 53.2237 102.462C65.4132 102.105 73.8019 109.489 74.0198 117.235C74.0937 118.656 73.873 120.077 73.3717 121.409C72.8704 122.741 72.0993 123.955 71.1067 124.975" stroke="#327BED" stroke-linecap="round" stroke-linejoin="round"/>
<path d="M33.0069 116.57C33.0069 116.485 41.0819 109.128 41.0819 109.128" stroke="#327BED" stroke-linecap="round" stroke-linejoin="round"/>
<path d="M34.033 118.564C34.1925 118.564 41.4275 112.036 41.4275 112.036" stroke="#327BED" stroke-linecap="round" stroke-linejoin="round"/>
<path d="M34.1871 121.658C34.3466 121.658 41.5817 115.13 41.5817 115.13" stroke="#327BED" stroke-linecap="round" stroke-linejoin="round"/>
<path d="M38.1261 107.102C38.3335 107.278 50.6027 121.658 50.6027 121.658" stroke="#327BED" stroke-linecap="round" stroke-linejoin="round"/>
<path d="M36.2816 110.696C36.489 110.872 48.7583 125.251 48.7583 125.251" stroke="#327BED" stroke-linecap="round" stroke-linejoin="round"/>
<path d="M34.1871 111.69C34.3945 111.866 46.6637 126.245 46.6637 126.245" stroke="#327BED" stroke-linecap="round" stroke-linejoin="round"/>
<path d="M35.0004 115.858C35.0908 115.938 37.6584 118.915 40.4227 122.157" stroke="#327BED" stroke-linecap="round" stroke-linejoin="round"/>
<path d="M60.4374 119.574L69.5809 109.505" stroke="#327BED" stroke-linecap="round" stroke-linejoin="round"/>
<path d="M63.2815 120.18L71.0163 111.669" stroke="#327BED" stroke-linecap="round" stroke-linejoin="round"/>
<path d="M64.7115 122.652L72.4463 114.135" stroke="#327BED" stroke-linecap="round" stroke-linejoin="round"/>
<path d="M65.4131 109.505L73.2117 119.574" stroke="#327BED" stroke-linecap="round" stroke-linejoin="round"/>
<path d="M62.3619 109.505L72.1646 122.157" stroke="#327BED" stroke-linecap="round" stroke-linejoin="round"/>
<path d="M62.6967 114.54L68.2679 121.732" stroke="#327BED" stroke-linecap="round" stroke-linejoin="round"/>
<path d="M61.7451 118.133L66.1043 123.47" stroke="#327BED" stroke-linecap="round" stroke-linejoin="round"/>
<path d="M251.005 97.7518C252.658 97.6667 257.485 95.6254 257.139 90.9633" stroke="white" stroke-linecap="round" stroke-linejoin="round"/>
<path d="M104.826 110.606C108.813 108.384 111.253 107.278 114.294 105.104" stroke="#FF523B" stroke-linecap="round" stroke-linejoin="round"/>
<path d="M127.578 118.245L125.037 118.442L116.952 119.058L115.357 119.18C115.357 119.18 112.263 115.566 113.23 111.834" stroke="#FF523B" stroke-linecap="round" stroke-linejoin="round"/>
<path d="M113.714 110.935C115.043 110.579 116.866 110.117 118.918 109.628C120.588 109.229 122.411 108.804 124.234 108.4" stroke="#FF523B" stroke-linecap="round" stroke-linejoin="round"/>
<path d="M256.273 214.916C257.151 215.493 257.927 216.212 258.569 217.042C259.062 217.751 259.528 218.46 259.968 219.169C267.591 231.204 267.702 241.496 267.564 243.239C267.489 244.138 267.333 245.028 267.096 245.897C266.32 248.779 264.332 252.617 259.34 252.277C257.373 252.149 255.991 251.772 255.034 251.213C254.464 250.891 253.984 250.43 253.64 249.872C253.296 249.314 253.099 248.678 253.067 248.024C253.008 246.878 253.082 245.729 253.285 244.6C253.7 241.693 251.643 232.033 248.501 225.027" stroke="#327BED" stroke-linecap="round" stroke-linejoin="round"/>
<path d="M253.105 232.634C251.308 232.352 249.862 231.789 249.522 230.508C249.24 229.445 250.394 229.057 252.052 229.274" stroke="#327BED" stroke-linecap="round" stroke-linejoin="round"/>
<path d="M129.503 100.25C131.959 101.755 131.486 103.737 131.486 103.737" stroke="#327BED" stroke-linecap="round" stroke-linejoin="round"/>
<path d="M164.051 135.899C163.972 136.213 162.754 146.85 162.589 161.597C162.589 162.894 162.589 164.217 162.589 165.568C162.589 165.568 167.874 167.997 171.653 169.241C175.055 170.357 177.001 170.267 178.755 169.517C178.952 169.432 179.149 169.342 179.345 169.241C181.27 168.247 187.399 166.514 192.635 166.514C193.417 166.514 194.134 166.514 194.815 166.514C197.473 166.514 199.44 166.339 201.284 165.233C202.232 164.645 203.077 163.907 203.788 163.048C206.951 159.391 209.492 157.652 214.144 156.786C215.48 156.514 216.747 155.971 217.865 155.191C219.511 154.041 220.95 152.619 222.118 150.986C222.118 150.986 221.368 149.614 220.039 147.387C217.142 142.528 211.497 133.565 204.852 125.698C204.391 125.156 203.927 124.624 203.459 124.103" stroke="#FF523B" stroke-linecap="round" stroke-linejoin="round"/>
<path d="M220.018 147.355C220.018 147.355 216.605 149.296 214.766 150.152C212.926 151.007 205.792 154.117 203.453 156.164C200.514 158.748 199.902 160.38 197.654 161.262C194.804 162.378 191.274 162.538 189.733 162.58C188.191 162.623 185.363 162.362 181.881 164.175C178.399 165.988 176.39 166.727 171.818 165.727C169.649 165.254 167.034 164.032 164.875 162.878C165.109 148.998 166.241 139.142 166.316 138.834C167.64 139.504 169.654 140.312 171.563 140.269C174.752 140.189 176.347 140.423 179.622 142.459C182.896 144.495 188.234 141.518 191.753 138.627C195.272 135.735 200.678 133.146 202.948 130.653C204.224 129.244 204.735 127.293 204.931 125.868L207.084 128.632C207.91 129.611 208.718 130.603 209.508 131.609C213.273 136.679 216.78 141.934 220.018 147.355V147.355Z" fill="#FF523B"/>
<path d="M169 143.512V151.911" stroke="white" stroke-linecap="round" stroke-linejoin="round"/>
<path d="M171.472 143.044C171.729 144.901 172.103 146.741 172.594 148.551" stroke="white" stroke-linecap="round" stroke-linejoin="round"/>
<path d="M185.74 155.239C187 156.499 189.621 158.96 189.621 158.96" stroke="white" stroke-linecap="round" stroke-linejoin="round"/>
<path d="M192.614 158.003C189.684 155.077 187.048 151.873 184.741 148.434" stroke="white" stroke-linecap="round" stroke-linejoin="round"/>
<path d="M185.964 148.62C185.209 147.398 184.901 145.994 187.027 147.504C189.153 149.014 190.86 151.597 192.061 150.954C192.593 150.667 191.088 147.286 191.088 147.286" stroke="white" stroke-linecap="round" stroke-linejoin="round"/>
<path d="M211.842 141.024C212.528 142.241 212.937 143.044 212.937 143.044" stroke="white" stroke-linecap="round" stroke-linejoin="round"/>
<path d="M205.744 132.162C207.527 134.197 209.116 136.393 210.492 138.722" stroke="white" stroke-linecap="round" stroke-linejoin="round"/>
<path d="M189.494 76.041C191.817 78.8266 193.805 80.8998 195.293 82.8667C196.782 84.8337 197.85 86.7687 198.18 89.1928C198.539 92.3697 198.598 95.5735 198.355 98.7615C198.004 104.843 197.159 110.52 197.866 112.509C199.115 116.033 202.799 120.961 202.799 120.961C202.809 121.608 202.766 122.256 202.672 122.896V122.896C202.475 124.337 201.965 126.293 200.689 127.68C198.419 130.179 193.018 132.768 189.494 135.654C185.969 138.541 180.648 141.502 177.362 139.487C174.077 137.473 172.509 137.217 169.303 137.297C167.395 137.34 165.38 136.532 164.057 135.862C163.547 135.609 163.052 135.329 162.573 135.022" stroke="#327BED" stroke-linecap="round" stroke-linejoin="round"/>
<path d="M251.515 209.164C250.877 212.295 247.794 215.012 244.493 216.245L243.366 214.916C246.459 213.409 249.022 210.999 250.718 208.005L250.76 208.064L251.515 209.164Z" fill="#FF523B"/>
<path d="M243.153 216.792C242.451 215.953 241.707 215.091 240.926 214.214" stroke="#FF523B" stroke-linecap="round" stroke-linejoin="round"/>
<path d="M249.989 206.942L250.718 208.005L250.76 208.064L251.515 209.159" stroke="#FF523B" stroke-linecap="round" stroke-linejoin="round"/>
<path d="M214.729 225.814C214.819 225.739 219.789 221.949 220.613 219.376L219.763 218.212C219.763 218.212 216.701 222.411 213.735 224.724L214.729 225.814Z" fill="#FF523B" stroke="#FF523B" stroke-linecap="round" stroke-linejoin="round"/>
</g>
</svg>
