<svg width="280" height="280" viewBox="0 0 280 280" fill="none" xmlns="http://www.w3.org/2000/svg">
<circle cx="140" cy="140" r="140" fill="white"/>
<path opacity="0.25" d="M159 87.4925C159.004 87.8642 158.774 88.2235 158.356 88.5005C157.939 88.7776 157.362 88.9526 156.739 88.9917C156.116 89.0308 155.491 88.9311 154.985 88.712C154.478 88.4929 154.127 88.17 154 87.8061L154.243 87.6995C155.251 87.2758 156.098 86.731 156.727 86.1003C156.67 86.0705 156.618 86.0368 156.574 86C156.793 86.0032 157.01 86.0243 157.219 86.0627C157.734 86.1571 158.185 86.3468 158.505 86.604C158.826 86.8613 158.999 87.1726 159 87.4925Z" fill="#E3F0FF"/>
<path opacity="0.25" d="M90.8834 68.1467C89.9535 69.2491 85.1228 68.5046 85.1228 68.5046C85.7708 69.3705 85.301 69.5239 84.4748 69.3513C83.9971 69.2425 83.5298 69.0928 83.0784 68.904C82.5375 68.6901 82.0133 68.4369 81.5103 68.1467L80.48 67.9582C79.7159 68.7843 78.7499 69.4036 77.6742 69.7572C77.4275 69.8337 77.1751 69.8914 76.9193 69.9297L76.78 69.9521C74.5445 70.2333 74.7259 69.2235 75.7011 68.3288C74.3041 69.2556 72.6807 69.7963 71 69.8946C71.0713 69.2555 72.1534 68.4439 72.8273 67.9294C73.8479 67.153 76.3491 64.7085 76.3491 64.7085C72.7852 66.0793 74.6319 64.3507 74.6319 64.3507C74.1672 64.5141 73.6698 64.5667 73.1805 64.504C73.5887 64.1142 73.877 63.833 73.9127 63.7979C73.3998 64.0124 72.8671 64.1772 72.3219 64.2899C71.7484 64.3922 71.6739 64.226 71.7581 64.0119C71.8742 63.7982 72.024 63.604 72.202 63.4368C71.9264 63.537 71.6368 63.5951 71.3434 63.6093C71.3269 63.583 71.316 63.5535 71.3115 63.5228C71.3069 63.4921 71.3088 63.4608 71.317 63.4309C71.3252 63.4009 71.3395 63.373 71.3591 63.3487C71.3787 63.3244 71.4032 63.3044 71.4309 63.2898C74.1654 61.6921 77.1656 58.7013 77.1656 58.7013C76.5176 58.6763 75.8738 58.5863 75.2443 58.4329C75.8696 57.6756 77.9658 54.8669 78.063 54.7391C77.9691 54.7838 76.2098 55.6146 75.1925 55.3238C74.9041 55.244 74.7583 55.1481 74.7227 55.0363L75.1633 54.4291C75.3966 54.2566 75.7044 54.0617 76.0316 53.8476C77.0813 53.1638 79.4659 50.8088 79.4659 50.8088C78.9676 50.9057 78.4505 50.8205 78.0112 50.5692C79.426 49.6781 80.5913 48.4508 81.4001 47C82.4087 48.1874 83.4907 49.3122 84.64 50.3679C83.9039 50.4332 83.1633 50.4332 82.4272 50.3679C84.2027 53.4993 87.2871 55.228 88.1035 55.9437C88.92 56.6595 87.0246 56.8097 87.0246 56.8097C87.0246 56.8097 88.4826 57.257 88.596 58.0015C88.7094 58.746 84.7858 58.0015 84.7858 58.0015C86.3572 60.0881 91 63.4847 91 63.4847C90.0215 64.2843 88.8212 64.7743 87.556 64.8907C87.6402 64.929 87.7212 64.9737 87.8054 65.0185C88.2774 65.2685 88.734 65.5459 89.1727 65.8493C90.3974 66.712 91.3013 67.6578 90.8834 68.1467Z" fill="#E3F0FF"/>
<path opacity="0.25" d="M113.801 112.598C111.056 113.452 107.255 111.955 105.239 110.193C106.572 111.7 106.817 113.404 103.762 112.914C103.624 112.894 103.487 112.867 103.352 112.833L103.114 112.775L103.039 112.751C102.944 112.727 102.85 112.697 102.758 112.663C102.649 112.629 102.544 112.588 102.442 112.547L102.16 112.428L101.919 112.312L101.685 112.19C101.607 112.149 101.533 112.105 101.458 112.06L101.288 111.958C101.193 111.839 101.146 111.768 101.146 111.768L101.034 111.792L100.776 111.611C100.374 111.315 99.9948 110.989 99.6422 110.635C99.5607 110.557 99.486 110.479 99.4182 110.404L99.2586 110.23L99.1263 110.081C98.8582 109.768 98.7156 109.563 98.7156 109.563L97.3072 109.876C95.2335 111.383 90.5398 113.493 92.3691 110.479C90.9572 110.733 89.5271 110.871 88.0928 110.894C87.9062 110.894 87.7229 110.894 87.5396 110.894H87.5159L87 110.86C87.6279 109.553 89.5997 107.822 91.4901 106.638C90.1886 106.469 88.9486 105.981 87.879 105.219C88.2659 104.933 88.6596 104.665 89.0533 104.42C88.4074 104.333 87.774 104.169 87.1663 103.933C88.5612 102.647 93.4517 98.0514 95.2844 95.0577C95.2844 95.0577 92.1756 95.7823 90.757 95.5782C91.1745 95.0918 91.5715 94.6087 91.9245 94.146C92.0908 93.9283 92.2639 93.714 92.3962 93.5031C92.5286 93.2922 92.7119 93.0404 92.8476 92.8227H92.8103H92.7458C92.627 92.8499 92.4064 92.8975 92.1315 92.952L92.0127 92.9758H91.9245C91.2797 92.8635 89.8882 92.5063 90.7536 91.5606C91.8668 90.3597 96.082 87.4545 98.5086 82.1918C98.5086 82.1918 96.5605 82.3925 95.4847 82.1918C95.4847 82.1918 99.4114 77.8101 101.438 74C101.546 74.1939 101.658 74.3912 101.777 74.5885C101.964 74.9015 102.171 75.2145 102.391 75.5309C102.459 75.6295 102.53 75.7316 102.605 75.8302C103.394 76.929 104.341 77.9046 105.415 78.7252C105.131 78.9294 104.807 79.0708 104.464 79.14C104.121 79.2092 103.767 79.2046 103.426 79.1267C103.426 79.1267 106.688 83.0933 108.12 84.2295L108.89 84.8487C109.23 85.2127 109.569 85.5562 109.858 85.8488C109.883 85.8983 109.901 85.9509 109.912 86.0053C109.915 86.0336 109.915 86.0621 109.912 86.0903C109.912 86.3149 109.719 86.5088 109.254 86.6721C108.991 86.756 108.714 86.7894 108.439 86.7707L108.229 86.7537C107.829 86.706 107.436 86.6125 107.058 86.4748L106.925 86.4271C106.481 86.2658 106.049 86.0726 105.632 85.8488L105.503 85.7808L105.449 85.7502L105.327 85.6821L105.524 86.0223C105.551 86.0631 105.575 86.1074 105.605 86.155C105.636 86.2026 105.643 86.2196 105.663 86.2536C105.683 86.2877 105.744 86.3829 105.785 86.4509C105.826 86.519 105.833 86.5326 105.86 86.5734L105.962 86.7401C106.233 87.1858 106.569 87.7369 106.925 88.3152C107.031 88.4887 107.139 88.6554 107.265 88.8425C107.315 88.9309 107.369 89.0194 107.428 89.1078C107.479 89.1963 107.536 89.2847 107.591 89.3732C108.242 90.4278 108.867 91.4143 109.196 91.9178C109.196 91.9178 107.499 92.4213 106.569 92.3702L106.8 92.6492L106.888 92.7547C107.305 93.2547 108.117 94.1971 109.138 95.2891L109.372 95.5374C109.861 96.0579 110.391 96.609 110.961 97.1533C111.147 97.337 111.337 97.5207 111.531 97.6976C112.037 98.1773 112.549 98.6433 113.089 99.0822C113.628 99.521 114.066 100.028 114.575 100.484C114.566 100.557 114.544 100.629 114.511 100.695C114.5 100.719 114.487 100.743 114.473 100.766C114.43 100.845 114.379 100.919 114.321 100.987C114.3 101.011 114.28 101.038 114.256 101.062C114.114 101.212 113.957 101.346 113.788 101.464L113.686 101.532C113.576 101.605 113.463 101.674 113.347 101.736C113.316 101.754 113.284 101.769 113.252 101.783C113.002 101.904 112.742 102 112.474 102.072C112.39 102.096 112.301 102.117 112.213 102.134H112.189L111.914 102.178C111.278 102.262 110.631 102.167 110.044 101.906C110.044 101.906 112.549 104.818 107.696 102.508C107.696 102.508 111.117 106.624 112.508 107.931C113.9 109.237 116.55 111.727 113.801 112.598Z" fill="#E3F0FF"/>
<path opacity="0.25" d="M231.842 95.7093C232.025 96.0477 232.054 96.3692 231.867 96.5993C230.71 98.0273 224.702 97.0629 224.702 97.0629C226.366 99.3809 222.094 97.7397 220.208 96.5993L218.941 96.3557C218.941 96.3557 217.119 98.5721 214.339 98.9376C211.56 99.3031 211.782 97.9935 212.996 96.8328C212.709 97.0424 212.41 97.2334 212.102 97.4047L211.864 97.5333C211.7 97.6212 211.532 97.7058 211.354 97.7871C211.231 97.8446 211.104 97.9021 210.974 97.9563C210.844 98.0104 210.774 98.0409 210.673 98.0781L210.334 98.2067L210.261 98.2304C210.172 98.2642 210.08 98.2946 209.992 98.3217C209.903 98.3488 209.779 98.3894 209.675 98.4198L209.418 98.4943C209.317 98.5248 209.215 98.5484 209.101 98.5721H209.05C208.933 98.6026 208.813 98.6263 208.695 98.65H208.626C208.495 98.677 208.365 98.7007 208.236 98.721C208.096 98.7447 207.96 98.765 207.821 98.7785C207.681 98.7921 207.545 98.809 207.409 98.8192C207.273 98.8293 207.136 98.8361 207 98.8395C207.518 98.3049 208.075 97.8139 208.664 97.3708C209.931 96.3557 213.043 93.1951 213.043 93.1951C208.626 94.975 210.907 92.7315 210.907 92.7315C210.232 92.9793 209.507 93.0307 208.806 92.8804L209.44 92.2577L209.703 91.9972C209.915 91.7907 210.106 91.6012 210.264 91.4388L210.375 91.3271L210.771 90.9278C206.354 92.7044 208.635 90.4642 208.635 90.4642C208.43 90.5431 208.217 90.6009 208.001 90.6368C210.154 89.0731 212.179 87.3173 214.054 85.3884C213.249 85.3592 212.449 85.2458 211.665 85.05C212.46 84.0348 215.176 80.2583 215.176 80.2583C215.176 80.2583 212.901 81.4089 211.598 81.0197C211.208 80.9046 211.028 80.7693 211.006 80.6136C210.974 80.4207 211.17 80.2042 211.49 79.9368C211.81 79.6695 212.2 79.4326 212.641 79.1315C213.943 78.2415 216.913 75.1858 216.913 75.1858C216.294 75.3133 215.654 75.2043 215.103 74.8779C217.224 73.4735 218.906 71.4275 219.936 69C220.402 69.5922 220.886 70.1742 221.368 70.7089L221.685 71.0473L222.249 71.6564L222.414 71.8323L222.642 72.0726L222.858 72.2959C223.593 73.0539 224.103 73.5378 224.103 73.5378C223.187 73.6198 222.265 73.6198 221.349 73.5378C223.567 77.5986 227.395 79.8387 228.41 80.7659C229.424 81.6931 227.069 81.886 227.069 81.886C227.069 81.886 228.879 82.4646 229.024 83.4324C229.17 84.4002 224.271 83.4324 224.271 83.4324C226.226 86.1396 232 90.5387 232 90.5387C231.883 90.6402 231.762 90.7383 231.642 90.8331L231.373 91.0294C231.287 91.0903 231.195 91.1478 231.106 91.2053C230.951 91.3052 230.792 91.3967 230.628 91.4794C230.549 91.5234 230.466 91.5674 230.384 91.6046C230.301 91.6418 230.229 91.6791 230.153 91.7095C230.076 91.74 229.985 91.784 229.899 91.8178L229.633 91.9193C229.446 91.987 229.259 92.0445 229.072 92.0953L228.806 92.163L228.536 92.2239L228.264 92.278C228.083 92.3085 227.906 92.3322 227.731 92.3525L227.928 92.4574L228.21 92.6164L228.362 92.7044L228.679 92.8871C228.885 93.0123 229.091 93.1443 229.291 93.2797C229.354 93.3203 229.417 93.3609 229.478 93.4049L229.645 93.5199C230.209 93.9058 230.739 94.344 231.23 94.8295C231.271 94.8701 231.309 94.9141 231.347 94.9547L231.442 95.0562C231.579 95.2146 231.704 95.3843 231.816 95.5638C231.8 95.6349 231.823 95.6721 231.842 95.7093Z" fill="#E3F0FF"/>
<path opacity="0.25" d="M162.607 170.594C160.895 171.805 156.376 173.399 153.486 174.346L153.371 174.382L153.305 174.405C152.232 174.756 151.409 175.009 151.077 175.109H151.037L150.981 175.129C129.528 181.917 82.8156 196.909 75.4428 199.334C67.7606 201.86 58.1035 204.385 53.3309 197.844C51.7049 195.614 51.6588 194.13 52.7055 193.127C55.4802 196.406 60.6971 199.769 69.9856 197.831C86.3309 194.429 113.824 184.141 137.161 177.249C160.497 170.357 164.315 167.428 163.726 166C165.694 167.299 165.428 168.847 162.607 170.594Z" fill="#E3F0FF"/>
<path opacity="0.25" d="M163 159.308C162.502 160.997 158.57 162.935 152.998 164.395C148.488 165.577 142.969 166.519 140 167L141.09 166.007C141.09 166.007 158.704 162.168 159.309 160.375C159.403 160.094 159.49 159.775 159.567 159.438C159.795 159.322 159.994 159.173 160.155 159C160.189 159.066 160.86 160.24 161.7 159.935C162.151 159.75 162.585 159.541 163 159.308Z" fill="#E3F0FF"/>
<path opacity="0.25" d="M118 175V175.607L110.269 178.2C101.501 181.068 69.3592 188.521 66.2121 188.937C64.8903 189.133 63.5379 188.867 62.4103 188.188C61.2827 187.509 60.4579 186.465 60.0917 185.252C59.6343 183.567 60.9228 182.228 63.1777 181.767C62.8362 182.571 62.2113 184.736 64.7883 185.746C67.9934 187.018 118 175 118 175Z" fill="#E3F0FF"/>
<path opacity="0.25" d="M178.971 88.8556C178.759 90.3769 178.7 90.1585 174.764 91.1266C170.827 92.0947 166.304 95.6431 165.412 96.3055C164.52 96.9679 161.865 98.7076 161.132 98.8277C157.602 99.4027 157.269 98.3545 157.269 98.3545C154.43 97.6703 153.958 95.887 154.003 94.6459C155.304 94.4577 156.526 93.8831 157.526 92.99L158.31 94.191C157.682 94.595 156.505 95.5776 156.721 97.1462C156.721 97.1462 159.036 95.1627 160.386 94.2347C161.736 93.3066 168.745 85.1361 169.203 83.1817C169.661 81.2274 167.995 81.3256 167.995 81.3256C167.995 81.3256 169.206 81.8715 165.083 86.9995L163.347 84.5793L164.541 80.4522C169.442 78.1375 170.869 79.2839 170.869 79.2839C174.073 78.556 174.035 81.413 174.573 83.5056C175.111 85.5983 175.77 85.5546 176.982 86.0532C178.193 86.5518 179.186 87.338 178.971 88.8556Z" fill="#E3F0FF"/>
<path opacity="0.25" d="M165 88L163 86" stroke="#327BED" stroke-linecap="round" stroke-linejoin="round"/>
<path opacity="0.25" d="M165 81.3085C165 81.3085 170.688 75.6802 172 82" stroke="#327BED" stroke-linecap="round" stroke-linejoin="round"/>
<path opacity="0.25" d="M131 126.715C129.182 127.466 127.901 128 127.901 128C125.591 127.291 124.452 125.027 124 123.835C125.12 122.941 127.323 121.174 127.507 121C127.507 120.994 128.969 124.33 131 126.715Z" fill="#FF523B"/>
<path opacity="0.25" d="M165.037 101.835C164.831 99.9633 165.43 97.1701 168.324 95.3653C171.219 93.5605 176.382 90.6907 175.978 92.6676C175.573 94.6446 171.279 96.1752 171.683 96.8863C172.087 97.5973 175.525 97.2306 172.877 98.8792C170.23 100.528 165.123 102.604 165.037 101.835Z" fill="#E3F0FF"/>
<path opacity="0.25" d="M191.967 117.753C191.499 118.137 185.542 117.966 184.668 117.939C184.443 114.374 184.182 110.857 184.233 108.761C184.302 105.81 183.954 103.201 183 101C183.051 101.121 185.306 102.476 185.237 103.441C185.168 104.406 185.745 102.827 186.245 103.249C186.746 103.671 187.246 106.639 185.883 108.699C184.519 110.759 185.589 114.209 186.746 114.153C187.902 114.097 191.949 112.769 191.949 113.592C191.949 114.416 190.861 116.248 187.279 115.838C187.572 115.924 192.446 117.355 191.967 117.753Z" fill="#E3F0FF"/>
<path opacity="0.25" d="M159 107.429C159 107.429 158.599 107.985 157.999 108.812C156.965 109.329 152.478 111.508 151.929 110.891C151.309 110.189 156.529 106.94 156.674 106.399C156.82 105.857 156.481 105.152 155.705 104.742C154.93 104.332 150.463 103.42 150.03 101.702C149.597 99.9851 153.955 101.909 155.321 102.289C156.506 104.055 157.915 106.006 159 107.429Z" fill="#E3F0FF"/>
<path opacity="0.25" d="M144 163.849C140.178 169.263 134.85 176 134.85 176C134.85 176 134.797 175.95 134.694 175.868C134.211 175.481 133.702 175.137 133.171 174.839C133.618 174.178 133.692 173.467 132.583 173.043C129.996 172.051 130.881 171.125 133.077 169.67C135.274 168.215 133.333 167.14 132.333 167.322C131.334 167.503 133.198 164.014 136.45 160.026C136.45 160.026 137.973 158.56 139.843 159.133C141.713 159.705 137.837 163.617 138.284 164.094C138.731 164.57 141.377 162.321 142.477 163.323C142.931 163.655 143.459 163.838 144 163.849Z" fill="#E3F0FF"/>
<path opacity="0.25" d="M140 146.04C136.992 151.042 131.586 160.173 128.418 165.227C128.057 165.809 127.737 166.335 127.427 166.794C124.507 167.575 123.339 165.945 122.974 165.053C122.716 164.436 121.843 164.248 121.35 163.82C121.224 163.723 121.126 163.594 121.066 163.446C121.006 163.298 120.987 163.135 121.009 162.977C121.107 162.458 121.28 161.958 121.523 161.493C122.978 162.66 123.956 163.548 125.09 162.496C126.919 160.796 130.261 155.087 132.54 154.892C134.819 154.697 137.506 145.312 140 146.04Z" fill="#E3F0FF"/>
<path opacity="0.25" d="M143.991 132.653C142.433 135.654 139.618 136.861 137.71 135.346C137.446 135.136 137.207 134.881 137 134.589C138.145 132.487 139.172 130.889 140.035 130.095C140.328 129.816 142.254 128.595 144.825 127C145.218 128.711 144.954 130.816 143.991 132.653Z" fill="#E3F0FF"/>
<path opacity="0.25" d="M151.879 137.903C150.137 140.679 147 141.795 144.868 140.397C144.539 140.182 144.246 139.914 144 139.603C146.322 136.586 149.351 133.502 152.563 132C153.31 133.656 153.11 135.932 151.879 137.903Z" fill="#E3F0FF"/>
<path opacity="0.25" d="M184 127.474C184 129.537 183.924 131.192 183.731 132.112C183.539 133.033 182.923 134.818 182.103 137C181.213 136.849 180.397 136.22 179.822 135.24C179.246 134.261 178.954 133.005 179.006 131.729C179.057 130.453 179.448 129.253 180.099 128.375C180.75 127.496 181.611 127.004 182.507 127C183.023 126.998 183.533 127.16 184 127.474Z" fill="#E3F0FF"/>
<path opacity="0.25" d="M153 114.659C152.561 115.375 152.199 115.97 151.968 116.352C150.701 118.454 148.728 120.242 145.105 121.818L144.696 122C144.065 120.744 143.853 119.273 144.101 117.856C144.349 116.438 145.039 115.169 146.046 114.279C147.052 113.389 148.309 112.937 149.585 113.007C150.862 113.077 152.074 113.663 153 114.659Z" fill="#E3F0FF"/>
<path opacity="0.25" d="M153 93.6951C153 94.3909 152.904 95.08 152.716 95.723C152.528 96.3661 152.253 96.9504 151.905 97.4426C151.558 97.9349 151.145 98.3253 150.691 98.5917C150.237 98.8582 149.751 98.9953 149.259 98.9953C149.173 99.0016 149.086 99.0016 149 98.9953C149.244 98.1098 149.468 97.3087 149.661 96.6382C150.263 94.5952 151.38 92.942 152.794 92C152.929 92.545 152.998 93.1178 153 93.6951Z" fill="#E3F0FF"/>
<path opacity="0.25" d="M149.82 86.1882C149.878 86.1741 149.942 86.1529 150 86.1318C149.737 86.8988 149.375 87.9671 149.388 88C149.175 87.4486 149.041 86.7994 149 86.1176C149 86.0957 149 86.0737 149 86.0518C149.003 86.0342 149.006 86.0169 149.009 86C149.009 86 149.2 86.3529 149.82 86.1882Z" fill="#E3F0FF"/>
<path opacity="0.25" d="M154 85.2835C153.794 86.6482 152.881 88.0948 150.462 89H150.259C150.171 89 150.085 89 150 89L152.274 83C152.833 83.0273 153.298 83.2411 153.56 83.8006C153.772 84.2492 153.922 84.7529 154 85.2835Z" fill="#E3F0FF"/>
<path opacity="0.25" d="M150.119 83C149.431 83.2797 149.149 83.6674 149.049 84.1155C148.992 84.4393 148.985 84.7712 149.028 85.0975C149.025 85.127 149.025 85.1569 149.028 85.1864C149.105 86.0763 149.769 88.9555 152.3 89H152.491C153.566 88.9658 154.607 88.5875 155.483 87.9131L155.618 87.8051C156.179 87.3757 156.65 86.8235 157 86.1843" stroke="#327BED" stroke-linecap="round" stroke-linejoin="round"/>
<path opacity="0.25" d="M168.696 79.0857C168.264 80.0721 167.495 80.1556 167.322 81.277C167.148 82.3984 167.839 85.634 164.547 85.9328C161.851 86.177 159.701 85.7754 158.386 84.397C158.264 84.0859 158.055 83.8057 157.78 83.5808C157.735 83.5069 157.691 83.4266 157.65 83.3463C157.13 82.3181 156.867 81.5405 150 82.061C150.713 78.1764 155.652 73.5977 163.173 74.0282C165.308 74.1954 167.29 75.064 168.714 76.4573C169.102 77.3022 169.095 78.245 168.696 79.0857Z" fill="#FF523B"/>
<path opacity="0.25" d="M149.006 82.1567C148.805 78.1351 153.995 72.5596 162.363 73.0276C165.52 73.206 170.253 75.696 168.693 79.1477C168.257 80.1252 167.483 80.208 167.308 81.3193C167.133 82.4306 167.825 85.6371 164.507 85.9332C161.19 86.2293 158.691 85.5702 157.555 83.3667C157.026 82.3064 156.781 81.5167 149.006 82.1567Z" stroke="#FF523B" stroke-linecap="round" stroke-linejoin="round"/>
<path opacity="0.25" d="M157 83C156.489 83 156.245 83 149 83" stroke="#327BED" stroke-linecap="round" stroke-linejoin="round"/>
<path opacity="0.25" d="M159 78C159.711 78.2304 160.385 78.5674 161 79" stroke="white" stroke-linecap="round" stroke-linejoin="round"/>
<path opacity="0.25" d="M159 79C159.675 79 160.346 79 161 79" stroke="white" stroke-linecap="round" stroke-linejoin="round"/>
<path opacity="0.25" d="M163 73H161" stroke="#FF523B" stroke-linecap="round" stroke-linejoin="round"/>
<path opacity="0.25" d="M165 73L163 70" stroke="#FF523B" stroke-linecap="round" stroke-linejoin="round"/>
<path opacity="0.25" d="M169 73V70" stroke="#FF523B" stroke-linecap="round" stroke-linejoin="round"/>
<path opacity="0.25" d="M169 73C169.039 73 170 73 170 73" stroke="#FF523B" stroke-linecap="round" stroke-linejoin="round"/>
<path opacity="0.25" d="M169 78H170" stroke="#FF523B" stroke-linecap="round" stroke-linejoin="round"/>
<path opacity="0.25" d="M165 80.6884C163.116 82.1502 157.014 85.4612 155.454 85.9399C155.27 85.9984 155.149 86.0166 155.108 85.9838C155.067 85.949 155.03 85.9097 154.998 85.8668C154.535 85.315 153.605 83.4183 154.185 83.1442C157.778 81.4668 162.096 79 162.096 79L165 80.6884Z" fill="#327BED" stroke="#327BED" stroke-linecap="round" stroke-linejoin="round"/>
<path opacity="0.25" d="M151.545 89C153.205 88.2543 153.832 87.0798 153.973 85.9537C154.014 85.5563 154.009 85.1486 153.957 84.7548C153.905 84.3609 153.808 83.9889 153.671 83.6606C153.161 82.3631 151.536 83.3325 150.438 83.5898C149.341 83.8471 149 83.2915 149 83.2915" stroke="#327BED" stroke-linecap="round" stroke-linejoin="round"/>
<path opacity="0.25" d="M150 83C150 83 149.861 83.6417 149.697 84.4617C149.398 85.9144 148.986 87.9376 149 88" stroke="#327BED" stroke-linecap="round" stroke-linejoin="round"/>
<path opacity="0.25" d="M152.951 83L152.45 83.8469L150 87.9994C150.034 88.1316 150.893 91.5253 152.951 91.9378C153.939 92.1361 155.108 91.8591 156.175 91.1255C157.523 90.137 158.487 88.7718 158.925 87.2343C158.952 87.1556 158.976 87.0738 159 86.9919" stroke="#327BED" stroke-linecap="round" stroke-linejoin="round"/>
<path opacity="0.25" d="M157 92L159 93" stroke="#327BED" stroke-linecap="round" stroke-linejoin="round"/>
<path opacity="0.25" d="M157.503 92L157 91.2505C157.947 90.4247 158.625 89.2843 158.932 88C159.375 91.2058 157.503 92 157.503 92Z" fill="#327BED" stroke="#327BED" stroke-linecap="round" stroke-linejoin="round"/>
<path opacity="0.25" d="M153 90.9715C153.277 90.6119 153.819 89.6448 153.986 89C154.114 91.889 153.318 92.9864 153 90.9715Z" stroke="#327BED" stroke-linecap="round" stroke-linejoin="round"/>
<path opacity="0.25" d="M130 118C130.894 117.358 131.832 116.699 132.78 116.046C135.914 113.898 139.191 111.849 141.522 110.893C141.849 110.754 142.187 110.646 142.534 110.572C144.585 110.155 144.602 111.873 143.907 112.413C143.212 112.952 142.021 112.006 142.534 110.572C142.577 110.455 142.628 110.341 142.686 110.23C144.208 107.321 146.245 101.774 147.666 98.0688C147.942 97.3516 148.196 96.7027 148.415 96.1597C149.096 94.505 150.362 93.166 151.964 92.403C152.296 92.2362 152.643 92.1013 153 92" stroke="#327BED" stroke-linecap="round" stroke-linejoin="round"/>
<path opacity="0.25" d="M159 108C159 108 158.598 108.616 157.996 109.532C157.455 110.351 156.758 111.408 156.052 112.486L153.69 116.045C153.266 116.682 152.916 117.21 152.692 117.551C151.468 119.42 149.559 121.009 146.057 122.41L145.662 122.572C143.495 123.447 138.836 125.39 135 127" stroke="#327BED" stroke-linecap="round" stroke-linejoin="round"/>
<path opacity="0.25" d="M126 124L130 121" stroke="white" stroke-linecap="round" stroke-linejoin="round"/>
<path opacity="0.25" d="M131 122L126 124" stroke="white" stroke-linecap="round" stroke-linejoin="round"/>
<path opacity="0.25" d="M126 127L131 124" stroke="white" stroke-linecap="round" stroke-linejoin="round"/>
<path opacity="0.25" d="M154.181 92C154.181 92 152.93 97.7041 157 99" stroke="#327BED" stroke-linecap="round" stroke-linejoin="round"/>
<path opacity="0.25" d="M166.326 82.2741C167.214 81.8281 168.668 81.78 168.178 83.2658C167.255 86.0623 160.301 93.3606 158.106 94.7674C156.744 95.6355 156.591 97.6737 157.922 98.559C159.021 99.2933 161.047 99.1492 163.273 97.835C165.499 96.5208 168.848 93.7758 170.942 92.7807C172.573 92.0724 174.267 91.5187 176 91.1268" stroke="#327BED" stroke-linecap="round" stroke-linejoin="round"/>
<path opacity="0.25" d="M170 82.0943C170 82.0943 171.65 81.7205 172.736 82.4612C173.823 83.2019 173.651 85.7607 175.906 86.153C178.162 86.5452 179.217 87.2097 178.963 88.2042C178.709 89.1987 177.478 88.9795 177.478 88.9795" stroke="#327BED" stroke-linecap="round" stroke-linejoin="round"/>
<path opacity="0.25" d="M159 97C161.354 96.532 163.483 95.1126 165 93" stroke="#327BED" stroke-linecap="round" stroke-linejoin="round"/>
<path opacity="0.25" d="M172 86C171.66 86.6324 170.085 87.9526 170.085 87.9526C170.085 87.9526 171.645 87.6482 172 87.3597C171.467 88.0648 170.782 88.6271 170 89" stroke="#327BED" stroke-linecap="round" stroke-linejoin="round"/>
<path opacity="0.25" d="M170 122C165.35 119.676 164.883 117.318 164.29 115.947C163.698 114.576 161.877 110.805 160.145 108.861L159.914 108.599C158.757 107.256 156.787 104.666 155.197 102.4C154.245 101.041 153.426 99.7951 153 99" stroke="#327BED" stroke-linecap="round" stroke-linejoin="round"/>
<path opacity="0.25" d="M161 101C162.03 102.904 164.959 109.072 165.808 110.764C166.658 112.457 167.451 117.346 168.005 118.25C168.559 119.155 170 122 170 122" stroke="#327BED" stroke-linecap="round" stroke-linejoin="round"/>
<path opacity="0.25" d="M179 89C188.353 96.344 198.152 110.348 195.585 131C195.585 131 189.959 130.384 185.361 128.266" stroke="#327BED" stroke-linecap="round" stroke-linejoin="round"/>
<path opacity="0.25" d="M169 99C170.175 95.9651 172.492 93.461 174 93" stroke="#327BED" stroke-linecap="round" stroke-linejoin="round"/>
<path opacity="0.25" d="M169 101C169.818 100.159 171.299 99.1715 172 99" stroke="#327BED" stroke-linecap="round" stroke-linejoin="round"/>
<path opacity="0.25" d="M167.089 140C168.375 136.536 169.661 132.864 169.899 131.509C170.053 130.627 170.028 129.072 169.844 127.025C169.324 121.281 167.549 111.651 165 102" stroke="#327BED" stroke-linecap="round" stroke-linejoin="round"/>
<path opacity="0.25" d="M180.744 97C181.594 98.2189 182.242 99.6542 182.647 101.216C183.3 103.635 183.538 106.505 183.491 109.745C183.456 112.06 183.635 115.906 183.789 119.83C183.903 122.749 184.007 125.668 184 128.045C184 129.948 183.923 131.476 183.729 132.325C183.536 133.175 182.915 134.822 182.089 136.836C181.198 139.009 180.072 141.594 179 144" stroke="#327BED" stroke-linecap="round" stroke-linejoin="round"/>
<path opacity="0.25" d="M183 109C183 109 184.118 104.991 183.99 102" stroke="#327BED" stroke-linecap="round" stroke-linejoin="round"/>
<path opacity="0.25" d="M188 116.382C188.17 117.118 188.347 117.198 188.519 116.616C188.691 116.034 188.855 114.804 189 113" stroke="#327BED" stroke-linecap="round" stroke-linejoin="round"/>
<path opacity="0.25" d="M184 118C184 118 187.213 118 189 118" stroke="#327BED" stroke-linecap="round" stroke-linejoin="round"/>
<path opacity="0.25" d="M150 101C151.362 101.261 152.698 101.595 154 102" stroke="#327BED" stroke-linecap="round" stroke-linejoin="round"/>
<path opacity="0.25" d="M153 109C154.259 108.749 156.35 108.235 157 108" stroke="#327BED" stroke-linecap="round" stroke-linejoin="round"/>
<path opacity="0.25" d="M165 122C165 122 168.333 123.499 170 124" stroke="#327BED" stroke-linecap="round" stroke-linejoin="round"/>
<path opacity="0.25" d="M172 127C172.774 127.722 174 128 174 128" stroke="#327BED" stroke-linecap="round" stroke-linejoin="round"/>
<path opacity="0.25" d="M172 128C173.075 129.698 174 131 174 131" stroke="#327BED" stroke-linecap="round" stroke-linejoin="round"/>
<path opacity="0.25" d="M127.205 166.802C124.386 167.553 123.275 165.984 122.906 165.126C122.656 164.532 121.814 164.351 121.337 163.939C121.216 163.846 121.122 163.722 121.064 163.579C121.006 163.436 120.987 163.28 121.009 163.127C121.103 162.629 121.27 162.147 121.505 161.699C122.643 159.265 125.537 154.812 128.484 149.83C129.07 148.84 129.652 147.841 130.227 146.842C130.48 146.399 130.734 145.954 130.987 145.501C133.348 141.37 135.591 137.377 137.509 134.436C138.791 132.491 139.942 131.013 140.909 130.279C141.238 130.02 143.396 128.89 146.277 127.415C153.394 123.767 165 118 165 118" stroke="#327BED" stroke-linecap="round" stroke-linejoin="round"/>
<path opacity="0.25" d="M179 144C179.734 143.824 180.45 143.648 181.134 143.503C187.203 142.122 192.35 137.257 193 131" stroke="#327BED" stroke-linecap="round" stroke-linejoin="round"/>
<path opacity="0.25" d="M137 137C137.71 138.284 138.751 139.325 140 140" stroke="#327BED" stroke-linecap="round" stroke-linejoin="round"/>
<path opacity="0.25" d="M144.116 144C144.35 145.08 145 146.401 145 146.401C145 146.401 144 145.883 144 146.08C144 146.278 144.5 148 144.5 148" stroke="#327BED" stroke-linecap="round" stroke-linejoin="round"/>
<path opacity="0.25" d="M126 163C128.118 162.228 129.607 161.59 130 161" stroke="#327BED" stroke-linecap="round" stroke-linejoin="round"/>
<path opacity="0.25" d="M135 166C135.899 164.333 137 161 137 161" stroke="#327BED" stroke-linecap="round" stroke-linejoin="round"/>
<path opacity="0.25" d="M131 175C132.314 174.376 136.823 172.559 135.653 172.176C134.482 171.793 133.115 171.447 133.863 170.98C134.611 170.513 140.531 166.671 141 166" stroke="#327BED" stroke-linecap="round" stroke-linejoin="round"/>
<path opacity="0.25" d="M116.62 127.991C116.62 127.991 115.46 128.011 114.904 127.991C114.347 127.97 113.897 127.218 114.021 126.755C114.144 126.292 116.263 124.548 116.643 124.306C117.078 124.152 117.534 124.049 118 124" stroke="#327BED" stroke-linecap="round" stroke-linejoin="round"/>
<path opacity="0.25" d="M122 122C121.787 122 121.406 122 121 122" stroke="#327BED" stroke-linecap="round" stroke-linejoin="round"/>
<path opacity="0.25" d="M117.567 124.948L115 125.375V124.073C115.609 123.504 116.255 122.99 116.932 122.534C117.293 122.263 117.699 122.081 118.123 122C118.216 121.997 118.309 122.015 118.396 122.055C118.482 122.095 118.561 122.155 118.627 122.231C118.942 122.593 118.987 123.264 118.85 123.388C118.713 123.512 118.031 124.39 117.561 124.948C117.44 125.1 117.313 125.245 117.179 125.382C116.882 125.664 115.616 127.575 115.691 127.882C115.735 128.054 116.352 128.061 117.087 127.751C117.744 127.48 118.331 127.019 118.79 126.411C119.048 126.513 119.313 126.587 119.582 126.635C120.282 126.763 121.294 126.776 122 126.039" stroke="#327BED" stroke-linecap="round" stroke-linejoin="round"/>
<path opacity="0.25" d="M118.925 126.367L115 127V125.072C115.932 124.228 116.92 123.466 117.955 122.791C118.507 122.39 119.128 122.121 119.777 122.001C119.919 121.995 120.061 122.023 120.194 122.082C120.326 122.14 120.446 122.229 120.546 122.342C121.029 122.878 121.097 123.873 120.888 124.057C120.679 124.24 119.636 125.541 118.916 126.367H118.925Z" fill="#327BED" stroke="#327BED" stroke-linecap="round" stroke-linejoin="round"/>
<path opacity="0.25" d="M114 129.631C114 130.348 114.816 131.234 116.1 130.943C117.349 130.567 118.54 130.086 119.652 129.509C120 129.333 120.306 129.172 120.538 129.032C120.707 128.947 120.853 128.836 120.964 128.706C121.154 128.347 120.552 127.945 120.004 128.006" stroke="#327BED" stroke-linecap="round" stroke-linejoin="round"/>
<path opacity="0.25" d="M115.016 129.808C114.861 130.425 115.843 131.248 117.329 130.929C117.495 130.893 117.657 130.847 117.812 130.792V130.792C118.667 130.479 119.443 130.069 120.11 129.578C120.348 129.411 120.562 129.227 120.749 129.029C120.981 128.779 121.068 128.566 120.942 128.439C120.788 128.299 120.59 128.186 120.363 128.109C120.136 128.033 119.887 127.996 119.636 128" stroke="#327BED" stroke-linecap="round" stroke-linejoin="round"/>
<path opacity="0.25" d="M118.138 130.422C117.85 131.16 117.992 132.029 118.762 131.999C119.248 131.999 119.941 131.063 120.425 130.245C120.645 129.901 120.831 129.517 120.975 129.102C121.118 128.537 120.623 127.521 119.99 128.259" stroke="#327BED" stroke-linecap="round" stroke-linejoin="round"/>
<path opacity="0.25" d="M131 144.721L130.147 146L119.803 131.14C120.071 130.879 120.296 130.588 120.471 130.274C120.645 129.845 120.043 129.075 119.275 129.634C119.452 129.401 119.518 129.203 119.422 129.084C119.305 128.953 119.153 128.848 118.98 128.777C118.807 128.706 118.617 128.671 118.425 128.675C118.56 128.6 118.676 128.501 118.765 128.384C118.916 128.065 118.436 127.707 118 127.745C118.363 127.537 118.692 127.286 118.975 127C119.295 127.094 119.624 127.164 119.958 127.208L131 144.721Z" fill="#327BED" stroke="#327BED" stroke-linecap="round" stroke-linejoin="round"/>
<path opacity="0.25" d="M156.808 153.064C157.96 151.412 158.854 150.606 159.921 150.099C160.988 149.591 163.774 147.732 164.769 146.372C162.687 146.85 160.955 147.289 159.881 147.627C159.374 147.814 158.82 147.841 158.297 147.702C156.631 147.176 156.811 144.516 158.137 144.711C159.629 144.932 159.171 146.694 158.297 147.702C158.21 147.806 158.114 147.903 158.012 147.992C156.974 148.902 151.465 154.917 148.002 159.96C147.226 161.089 146.132 162.516 144.895 164.054C140.639 169.377 134.708 176 134.708 176C134.708 176 134.649 175.951 134.534 175.87C133.996 175.49 133.429 175.152 132.838 174.859C132.063 174.468 131.256 174.142 130.426 173.883C129.697 173.644 129.03 173.248 128.473 172.725C127.915 172.201 127.48 171.562 127.198 170.853L127.142 170.72C126.989 170.35 126.879 169.963 126.815 169.569C126.773 169.311 126.698 169.06 126.593 168.821C126.431 168.453 126.233 168.102 126 167.774C126.242 167.449 126.583 166.954 126.982 166.333C127.267 165.904 127.588 165.413 127.935 164.87C130.969 160.152 136.164 151.63 139.065 146.961C139.739 145.865 140.289 144.984 140.656 144.412C141.438 143.189 142.284 142.007 143.189 140.871C145.51 137.945 148.538 134.953 151.75 133.496L151.953 133.405C158.304 130.658 170 127 170 127" stroke="#327BED" stroke-linecap="round" stroke-linejoin="round"/>
<path opacity="0.25" d="M160.11 152C160.009 152.46 159.886 152.951 159.765 153.449C159.452 154.586 159.209 155.764 159.036 156.968C158.96 157.686 158.996 158.271 159.22 158.61C159.334 158.816 159.494 158.952 159.67 158.989C159.847 159.027 160.026 158.964 160.173 158.813C160.326 158.665 160.46 158.475 160.567 158.254C160.756 157.865 160.902 157.433 161 156.975" stroke="#327BED" stroke-linecap="round" stroke-linejoin="round"/>
<path opacity="0.25" d="M161 157.621C161.034 157.707 161.717 159.24 162.571 158.841C163.424 158.442 164.067 157.763 164.356 157.874C164.564 157.953 165.009 158.657 165.407 158.914C165.57 159.014 165.726 159.042 165.852 158.914C166.291 158.477 166.767 157.621 167.131 157.804C167.495 157.988 168.685 158.439 169.11 156.837C169.178 156.587 169.253 156.293 169.341 155.963C169.525 155.27 169.756 154.462 170.048 153.63C170.521 152.281 171.153 150.898 172 150" stroke="#327BED" stroke-linecap="round" stroke-linejoin="round"/>
<path opacity="0.25" d="M159 156.013C158.488 156.74 158.088 157.494 157.805 158.264C157.585 158.281 157.397 158.299 157.239 158.318C156.273 158.435 155.604 159.377 154.46 158.831C153.317 158.286 154.571 156.842 155.332 156.298C155.699 156.032 157.07 155.969 159 156.013Z" fill="#327BED" stroke="#327BED" stroke-linecap="round" stroke-linejoin="round"/>
<path opacity="0.25" d="M240.492 157C226.497 157.012 187.896 156.666 169 156.683C169.179 156.48 169.404 156.244 169.689 156C170.497 156.021 171.292 156.042 172.064 156.058C177.407 156.168 224.623 156.464 240.628 156.75C241.237 156.826 241.032 156.988 240.492 157Z" fill="#327BED" stroke="#327BED" stroke-linecap="round" stroke-linejoin="round"/>
<path opacity="0.25" d="M240.708 161C239.908 161 239.16 159.934 239.01 158.598C239.01 158.565 239.01 158.532 239.01 158.499C238.997 158.301 238.997 158.103 239.01 157.906C239.072 156.812 239.599 156 240.285 156C240.97 156 241.709 156.901 241.933 158.084C241.96 158.219 241.98 158.356 241.992 158.499C241.993 158.521 241.993 158.543 241.992 158.565C242.074 159.916 241.512 161 240.708 161Z" stroke="#327BED" stroke-linecap="round" stroke-linejoin="round"/>
<path opacity="0.25" d="M154 156.815C154.93 157.151 156.132 157.012 156.687 156.539C157.108 156.183 156.983 156 156.983 156" stroke="white" stroke-linecap="round" stroke-linejoin="round"/>
<path opacity="0.25" d="M122 131C122 131 124.156 129.621 124.463 128.457C124.612 127.884 126 127 126 127" stroke="#327BED" stroke-linecap="round" stroke-linejoin="round"/>
<path opacity="0.25" d="M135 175.936C134.821 176.256 134.628 176.587 134.472 176.819C134.057 177.426 132.866 177.538 127.084 178.899C121.301 180.26 117.587 180.266 115.466 179.426C113.345 178.587 113.654 177.448 115.569 175.731C116.059 175.361 116.612 175.05 117.209 174.808C119.721 173.681 124.01 172.329 125.238 171.528C125.873 171.072 126.444 170.56 126.941 170C127.048 170.201 127.123 170.412 127.167 170.629C127.238 171.005 127.368 171.372 127.552 171.722C127.837 172.318 128.278 172.855 128.844 173.295C129.409 173.735 130.085 174.068 130.824 174.269C132.312 174.645 133.72 175.208 135 175.936Z" fill="#327BED" stroke="#327BED" stroke-linecap="round" stroke-linejoin="round"/>
<path opacity="0.25" d="M122 175C122.934 175.107 124 175.606 124 176" stroke="white" stroke-linecap="round" stroke-linejoin="round"/>
<path opacity="0.25" d="M124 171C124.574 171.281 125.075 171.817 125.433 172.534C125.791 173.25 125.989 174.112 126 175" stroke="white" stroke-linecap="round" stroke-linejoin="round"/>
<path opacity="0.25" d="M125.098 167.858C125.307 168.235 125.485 168.638 125.63 169.061C125.19 169.825 124.684 170.525 124.122 171.148C123.035 172.238 119.238 174.087 117.014 175.629C115.545 176.002 113.276 176.309 111.598 175.431C110.998 175.137 110.474 174.635 110.085 173.982C109.609 173.164 111.26 170.427 111.848 170.009C112.436 169.591 115.824 167.914 117.575 166.484C118.723 165.457 119.788 164.29 120.758 163C121.122 163.373 121.727 163.597 122.033 164.064C122.085 164.142 122.127 164.229 122.159 164.322C122.488 165.297 123.482 167.044 126 166.189C125.618 166.917 125.315 167.481 125.098 167.858Z" fill="#327BED" stroke="#327BED" stroke-linecap="round" stroke-linejoin="round"/>
<path opacity="0.25" d="M115 167C116.324 167.629 117.385 168.69 118 170" stroke="white" stroke-linecap="round" stroke-linejoin="round"/>
<path opacity="0.25" d="M118 167C119.386 167.342 120.712 168.338 121 170" stroke="white" stroke-linecap="round" stroke-linejoin="round"/>
<path opacity="0.25" d="M111 176.066C102.026 179.232 69.4972 188.445 66.3044 188.925C64.963 189.16 63.5906 188.84 62.4466 188.027C61.3026 187.213 60.4661 185.962 60.0953 184.509C59.4907 181.918 61.8208 179.999 65.4449 180.191C69.0691 180.384 76.752 179.944 109.02 171" stroke="#327BED" stroke-linecap="round" stroke-linejoin="round"/>
<path opacity="0.25" d="M150 166C155.033 164.875 160.864 163.17 163 161" stroke="#327BED" stroke-linecap="round" stroke-linejoin="round"/>
<path opacity="0.25" d="M141 167C141 167 144.46 167 149 167" stroke="#327BED" stroke-linecap="round" stroke-linejoin="round"/>
<path opacity="0.25" d="M149 161L154 159" stroke="#327BED" stroke-linecap="round" stroke-linejoin="round"/>
<path opacity="0.25" d="M161.929 170.276C165.377 168.772 165.843 167.462 163.722 166.352C160.013 164.431 140 171 140 171" stroke="#327BED" stroke-linecap="round" stroke-linejoin="round"/>
<path opacity="0.25" d="M154 171C155.906 171 157.572 171 159 171" stroke="#327BED" stroke-linecap="round" stroke-linejoin="round"/>
<path opacity="0.25" d="M111.655 180.127C106.691 181.471 77.2748 190.547 67.3307 190.997C57.3866 191.447 48.5754 191.557 53.3231 197.943C58.0709 204.328 67.6778 201.863 75.32 199.4C82.9623 196.938 133.066 181.157 153 175" stroke="#327BED" stroke-linecap="round" stroke-linejoin="round"/>
<path opacity="0.25" d="M161 111C159.657 111 158.324 111 157 111" stroke="#327BED" stroke-linecap="round" stroke-linejoin="round"/>
<path opacity="0.25" d="M192 108C211.285 105.014 230.659 104.256 250 105.731" stroke="#327BED" stroke-linecap="round" stroke-linejoin="round"/>
<path opacity="0.25" d="M40 144C54.7885 137.461 89.4789 125.523 134 117" stroke="#327BED" stroke-linecap="round" stroke-linejoin="round"/>
<path opacity="0.25" d="M218 105C218 102.846 218 101.062 218 99" stroke="#327BED" stroke-linecap="round" stroke-linejoin="round"/>
<path opacity="0.25" d="M219.707 105C219.072 103.743 218.875 96.3015 218.875 96.3015C218.875 96.3015 217.049 98.509 214.264 98.873C211.479 99.2369 211.702 97.9327 212.918 96.7767C212.63 96.9855 212.331 97.1757 212.022 97.3463L211.784 97.4743C211.619 97.562 211.451 97.6462 211.273 97.7271C211.149 97.7844 211.022 97.8417 210.892 97.8956C210.762 97.9495 210.692 97.9799 210.59 98.0169L210.25 98.145L210.177 98.1686C210.088 98.2023 210 98.2326 209.907 98.2596C209.815 98.2866 209.695 98.327 209.59 98.3573L209.333 98.4315L209.015 98.509H208.964C208.847 98.5393 208.729 98.5629 208.609 98.5865H208.539C208.41 98.6135 208.28 98.6371 208.148 98.6573C208.012 98.6809 207.872 98.7011 207.732 98.7146C207.593 98.7281 207.456 98.7483 207.319 98.755C207.183 98.7618 207.046 98.7752 206.91 98.7752C206.697 98.7752 206.487 98.7752 206.275 98.7752H206.138L205.868 98.7516H205.84L205.573 98.7112H205.481H205.405L205.087 98.6404C202.585 97.9866 205.014 96.1027 206.284 95.1017C206.865 94.6467 207.831 93.7368 208.707 92.8875L209.342 92.2674L209.606 92.0079C209.819 91.8023 210.009 91.6136 210.168 91.4518L210.279 91.3406L210.676 90.9429C206.249 92.7122 208.536 90.4812 208.536 90.4812C208.33 90.5597 208.117 90.6172 207.901 90.653C205.859 91.0137 203.788 89.5476 204.544 89.096C207.951 87.0503 211.689 83.1644 211.689 83.1644C210.882 83.1366 210.08 83.0237 209.295 82.8274L209.374 82.7263C209.517 82.5443 209.692 82.2983 209.917 82.0152L210.181 81.658L210.203 81.631L210.908 80.6739C210.987 80.5626 211.07 80.4514 211.152 80.3368C211.235 80.2223 211.314 80.1144 211.394 79.9998L212.388 78.6349C212.451 78.5439 212.508 78.463 212.562 78.3922L212.807 78.0552C212.807 78.0552 210.527 79.2011 209.222 78.8169C207.916 78.4327 208.961 77.826 210.266 76.9397C211.571 76.0533 214.547 73.0134 214.547 73.0134C213.927 73.1383 213.286 73.0299 212.734 72.7067C216.608 70.2498 217.907 66 217.907 66C218.079 66.3855 218.277 66.7572 218.5 67.1122C218.537 67.1785 218.578 67.2426 218.621 67.3043C218.669 67.3852 218.72 67.4627 218.77 67.5402C218.91 67.7525 219.056 67.9648 219.212 68.1805C219.244 68.2243 219.272 68.2681 219.304 68.3086L219.542 68.6456C219.653 68.7939 219.764 68.9388 219.879 69.0837C220.345 69.6735 220.831 70.2532 221.314 70.7688L221.632 71.1059L222.197 71.7125C222.251 71.7732 222.308 71.8305 222.362 71.8877L222.591 72.127L222.807 72.3495C223.543 73.1044 224.054 73.5863 224.054 73.5863C223.136 73.668 222.213 73.668 221.295 73.5863C223.518 77.6306 227.354 79.8616 228.37 80.7851C229.386 81.7085 227.027 81.9006 227.027 81.9006C227.027 81.9006 228.84 82.4769 228.986 83.4408C229.132 84.4047 224.223 83.4408 224.223 83.4408C226.182 86.137 231.968 90.5182 231.968 90.5182C231.85 90.6193 231.73 90.7171 231.609 90.8114L231.339 91.0069C231.253 91.0676 231.161 91.1249 231.072 91.1822C230.917 91.2817 230.757 91.3728 230.593 91.4552C230.514 91.499 230.431 91.5428 230.348 91.5798C230.266 91.6169 230.193 91.654 230.117 91.6843C230.04 91.7147 229.945 91.7585 229.863 91.7922C229.78 91.8259 229.685 91.8629 229.596 91.8933C229.408 91.9607 229.221 92.018 229.034 92.0685C228.946 92.0958 228.857 92.1183 228.767 92.1359C228.678 92.1595 228.586 92.1797 228.497 92.1966L228.224 92.2505C228.043 92.2809 227.865 92.3078 227.69 92.3247C225.22 92.601 223.286 91.7787 224.305 91.3608C224.902 91.1148 226.271 91.5765 227.69 92.3247L227.887 92.4291L228.17 92.5875L228.322 92.6752L228.64 92.8572C228.846 92.9819 229.053 93.1133 229.253 93.2481L229.44 93.3728L229.608 93.4874C230.173 93.8717 230.704 94.3081 231.196 94.7917L231.314 94.9164L231.409 95.0175C231.546 95.1751 231.672 95.3442 231.784 95.523C231.806 95.5601 231.828 95.5971 231.847 95.6342C232.031 95.9712 232.06 96.3082 231.873 96.5206C230.714 97.9428 224.693 96.9823 224.693 96.9823C226.36 99.2909 222.079 97.6732 220.19 96.5206" stroke="#327BED" stroke-linecap="round" stroke-linejoin="round"/>
<path opacity="0.25" d="M101 122C101 118.774 101 116.105 101 113" stroke="#327BED" stroke-linecap="round" stroke-linejoin="round"/>
<path opacity="0.25" d="M98.2375 111.341C96.2789 112.793 91.8456 114.826 93.5734 111.921C92.2398 112.166 90.889 112.3 89.5343 112.321C89.358 112.321 89.1849 112.321 89.0118 112.321H88.9894C88.8227 112.321 88.6688 112.302 88.5021 112.289L88.2008 112.256L88.0341 112.233H87.9219C87.7361 112.202 87.5521 112.162 87.3705 112.111L87.2231 112.069L87.066 112.016L86.941 111.967C86.8829 111.944 86.8262 111.918 86.7711 111.889C86.7267 111.869 86.6838 111.846 86.6428 111.82C86.5373 111.76 86.4384 111.688 86.3479 111.607C86.3197 111.583 86.2929 111.558 86.2678 111.531L86.2325 111.492C86.1977 111.453 86.1656 111.411 86.1364 111.367C86.0644 111.248 86.0195 111.114 86.0051 110.975C85.9907 110.836 86.007 110.696 86.053 110.564C86.053 110.538 86.069 110.515 86.0754 110.489C86.396 109.449 87.7872 108.03 89.3324 106.882C89.6978 106.607 90.0696 106.348 90.4415 106.111C91.9129 105.17 93.3265 104.59 93.9484 104.898C94.9999 105.423 92.9868 106.459 90.4415 106.111C89.8314 106.028 89.2331 105.87 88.6592 105.643H88.6335C88.5267 105.601 88.4198 105.555 88.313 105.505L88.0341 105.37C87.8994 105.302 87.7616 105.226 87.627 105.148C87.4923 105.069 87.4026 105.01 87.2904 104.934C86.8243 104.621 86.3942 104.255 86.0081 103.843L86.1235 103.738L86.2101 103.656L86.9762 102.928L87.207 102.705C87.8482 102.082 88.6976 101.246 89.5888 100.318L89.9254 99.9672L90.2908 99.5803L90.6114 99.2525C91.1115 98.7115 91.6051 98.1541 92.0667 97.6131C92.461 97.1443 92.8361 96.6787 93.1695 96.2328C93.3265 96.0229 93.49 95.8164 93.6151 95.6131C93.7401 95.4098 93.9132 95.1672 94.0414 94.9574H94.0061H93.9452C93.833 94.9836 93.6247 95.0295 93.365 95.082L93.2528 95.1049L93.1695 95.1213L92.5283 95.2426L92.352 95.2721H92.3104L92.1565 95.2951L91.6949 95.3607L91.4192 95.3967C90.8333 95.4805 90.2388 95.4805 89.6529 95.3967C89.5659 95.3803 89.4809 95.3539 89.3997 95.318C89.3337 95.2913 89.2737 95.2511 89.2234 95.2C89.1878 95.1635 89.1611 95.119 89.1455 95.07C89.1299 95.021 89.1259 94.9689 89.1336 94.918C89.2843 93.7082 91.1628 92.9836 91.1628 92.9836C91.1628 92.9836 88.7201 92.741 89.7715 91.5803C90.823 90.4197 94.8043 87.6098 97.0963 82.5311C97.0963 82.5311 95.2563 82.7246 94.2434 82.5311C94.2434 82.5311 99.164 76.918 100.59 73V73.0197C100.59 73.0197 100.59 73.0623 100.61 73.0951C100.629 73.1279 100.61 73.1377 100.629 73.1639L100.735 73.5115L100.764 73.5967C100.796 73.6918 100.831 73.8 100.873 73.9246C100.914 74.0492 100.966 74.1902 101.02 74.3377C101.075 74.4852 101.116 74.5869 101.167 74.7213C101.219 74.8557 101.241 74.9016 101.28 74.9934C101.318 75.0852 101.321 75.0885 101.341 75.1377C101.36 75.1869 101.401 75.282 101.437 75.3574C101.472 75.4328 101.539 75.5869 101.594 75.7049L101.68 75.8918C101.783 76.1049 101.892 76.3246 102.001 76.5475L102.148 76.8229C102.251 77.0098 102.357 77.2 102.469 77.3902C102.645 77.6918 102.841 77.9934 103.049 78.2984C103.113 78.3934 103.181 78.4918 103.251 78.5869C103.996 79.6459 104.891 80.5861 105.905 81.377C105.637 81.5738 105.331 81.7101 105.007 81.7768C104.683 81.8435 104.349 81.8391 104.027 81.7639C104.027 81.7639 107.107 85.5869 108.46 86.6984L109.188 87.2951L109.226 87.3246C109.462 87.5146 109.683 87.7229 109.887 87.9475L109.964 88.0426C110.017 88.1095 110.063 88.182 110.102 88.259C110.125 88.3067 110.142 88.3574 110.153 88.4098C110.156 88.4371 110.156 88.4646 110.153 88.4918C110.153 88.7082 109.97 88.8951 109.531 89.0525C109.283 89.1333 109.022 89.1656 108.762 89.1475L108.563 89.1311C108.185 89.0852 107.814 88.995 107.457 88.8623L107.332 88.8164C106.912 88.6609 106.504 88.4747 106.111 88.259L105.989 88.1934L105.937 88.1639L105.822 88.0984L106.008 88.4262L106.085 88.5541C106.104 88.5836 106.12 88.6164 106.139 88.6492C106.159 88.682 106.213 88.7738 106.255 88.8393C106.296 88.9049 106.3 88.918 106.325 88.9574L106.421 89.118C106.678 89.5475 106.995 90.0787 107.332 90.6361C107.431 90.8033 107.534 90.9639 107.652 91.1443C107.702 91.2295 107.753 91.3148 107.806 91.4L107.96 91.6557C108.576 92.6721 109.165 93.6229 109.476 94.1082C109.476 94.1082 107.874 94.5934 106.995 94.5443L107.213 94.8131L107.297 94.9148C107.691 95.3967 108.457 96.3049 109.422 97.3574L109.643 97.5967C110.105 98.0984 110.605 98.6295 111.143 99.1541C111.32 99.3311 111.499 99.5082 111.682 99.6787C112.16 100.141 112.644 100.59 113.153 101.013C113.367 101.19 113.575 101.361 113.778 101.525C113.884 101.607 113.987 101.689 114.099 101.764L114.419 101.993C114.478 102.033 114.525 102.089 114.553 102.155C114.581 102.22 114.591 102.293 114.58 102.364C114.571 102.435 114.55 102.503 114.519 102.567C114.508 102.591 114.497 102.614 114.484 102.636C114.443 102.712 114.394 102.783 114.339 102.849C114.32 102.872 114.301 102.898 114.278 102.921C114.144 103.066 113.996 103.195 113.836 103.308L113.74 103.374C113.636 103.445 113.529 103.511 113.419 103.57L113.33 103.616C113.094 103.732 112.848 103.826 112.595 103.895C112.515 103.918 112.432 103.938 112.349 103.954H112.326L112.067 103.997C111.465 104.077 110.854 103.987 110.3 103.734C110.3 103.734 112.666 106.541 108.082 104.315C108.082 104.315 111.313 108.282 112.628 109.541C113.942 110.8 116.474 113.167 113.868 113.99C111.262 114.813 107.684 113.37 105.78 111.672C107.04 113.125 107.271 114.767 104.386 114.295C104.255 114.275 104.126 114.249 103.998 114.216L103.774 114.161L103.703 114.138C103.613 114.114 103.524 114.086 103.437 114.052C103.334 114.02 103.235 113.98 103.139 113.941L102.873 113.826L102.645 113.715L102.424 113.597C102.35 113.557 102.28 113.515 102.209 113.472L102.049 113.374C101.966 113.321 101.886 113.269 101.809 113.213L101.565 113.039C101.185 112.754 100.827 112.439 100.494 112.098C100.417 112.023 100.347 111.948 100.283 111.875L100.132 111.708L100.007 111.564C99.7538 111.262 99.6192 111.066 99.6192 111.066C99.6192 111.066 99.4204 120.42 98.7569 122" stroke="#327BED" stroke-linecap="round" stroke-linejoin="round"/>
<path opacity="0.25" d="M128.717 118C124.896 120.318 122 122.212 122 122.212C122.096 122.512 122.213 122.807 122.351 123.096C123.001 124.5 124.64 127.166 127.965 128C127.965 128 129.808 127.371 132.424 126.487L134 125.954" stroke="#FF523B" stroke-linecap="round" stroke-linejoin="round"/>
<path opacity="0.25" d="M134 127C132.323 125.226 130.97 123.198 130 121" stroke="#FF523B" stroke-linecap="round" stroke-linejoin="round"/>
<path opacity="0.25" d="M115 124C116.304 124 119.249 124 121 124" stroke="white" stroke-linecap="round" stroke-linejoin="round"/>
<path opacity="0.25" d="M176 145.659C174.12 149.226 172.621 152 172.621 152C172.621 152 167.667 149.625 165.4 146.112C165.257 145.884 165.121 145.656 165 145.42C165 145.42 165.93 142.996 167.032 140C168.36 141.755 171.11 144.461 176 145.659Z" fill="#FF523B"/>
<path opacity="0.25" d="M176 145.158L175.417 146.229C173.636 149.475 172.217 152 172.217 152C172.217 152 167.526 149.838 165.379 146.641C165.244 146.433 165.114 146.226 165 146.011C165 146.011 165.881 143.804 166.925 141.078L167.334 140" stroke="#FF523B" stroke-linecap="round" stroke-linejoin="round"/>
<path opacity="0.25" d="M169 140C170.351 141.749 173.256 143.752 174 144" stroke="#FF523B" stroke-linecap="round" stroke-linejoin="round"/>
<path opacity="0.25" d="M169 146L170 141" stroke="white" stroke-linecap="round" stroke-linejoin="round"/>
<path opacity="0.25" d="M170 148L172 144" stroke="white" stroke-linecap="round" stroke-linejoin="round"/>
<path opacity="0.25" d="M172 148L174 146" stroke="white" stroke-linecap="round" stroke-linejoin="round"/>
<path opacity="0.25" d="M115 176C117.816 174.283 122.623 172.221 124 171" stroke="white" stroke-linecap="round" stroke-linejoin="round"/>
<path opacity="0.25" d="M52.6991 193.318C51.6556 194.3 51.7147 195.751 53.3226 197.934C58.0805 204.334 67.708 201.863 75.3666 199.391C82.7169 197.019 129.286 182.35 150.674 175.708L150.729 175.689H150.762H150.779L150.959 175.632L151.71 175.4L152.577 175.13L153 175" stroke="#327BED" stroke-linecap="round" stroke-linejoin="round"/>
<path opacity="0.25" d="M231.844 95.7162C232.029 96.0539 232.057 96.3747 231.87 96.6043C230.709 98.0294 224.682 97.067 224.682 97.067C226.351 99.3801 222.065 97.7423 220.173 96.6043L218.902 96.3612C218.902 96.3612 217.074 98.573 214.286 98.9377C211.498 99.3024 211.72 97.9956 212.938 96.8373C212.65 97.0465 212.351 97.2371 212.041 97.408L211.803 97.5363C211.637 97.6241 211.469 97.7086 211.291 97.7896C211.167 97.847 211.04 97.9044 210.909 97.9584C210.779 98.0125 210.709 98.0429 210.607 98.08L210.267 98.2083L210.194 98.232C210.105 98.2657 210.013 98.2961 209.924 98.3231C209.835 98.3502 209.711 98.3907 209.606 98.4211L209.348 98.4954C209.247 98.5257 209.145 98.5494 209.03 98.573H208.98C208.862 98.6034 208.741 98.6271 208.624 98.6507H208.554C208.422 98.6777 208.292 98.7013 208.163 98.7216C208.023 98.7452 207.886 98.7655 207.746 98.779C207.606 98.7925 207.469 98.8094 207.333 98.8195C207.196 98.8297 207.059 98.8364 206.923 98.8398C206.71 98.8398 206.5 98.8398 206.287 98.8398H206.15C206.058 98.8398 205.969 98.8398 205.88 98.8162H205.842C205.753 98.8162 205.664 98.8026 205.575 98.7756H205.483H205.406C205.302 98.7554 205.196 98.7317 205.088 98.7047C202.583 98.0496 205.015 96.162 206.287 95.159C206.869 94.7032 207.835 93.8083 208.713 92.9404L209.348 92.3191C209.441 92.2313 209.53 92.1469 209.612 92.0591C209.825 91.8531 210.016 91.664 210.175 91.5019L210.286 91.3905L210.684 90.992C206.252 92.7649 208.541 90.5294 208.541 90.5294C208.335 90.6081 208.122 90.6657 207.905 90.7016V90.7016C205.861 91.0629 203.772 89.594 204.545 89.1415C207.956 87.0918 211.698 83.1983 211.698 83.1983C210.89 83.1703 210.087 83.0572 209.301 82.8606L209.38 82.7593C209.523 82.5769 209.698 82.3304 209.924 82.0468C210.01 81.9319 210.099 81.8138 210.188 81.6888L210.21 81.6618C210.436 81.3613 210.674 81.0337 210.916 80.7028L211.161 80.3651C211.24 80.2503 211.323 80.1422 211.402 80.0274L212.397 78.6767L212.572 78.4335L212.817 78.0959C212.817 78.0959 210.534 79.244 209.228 78.859C207.921 78.4741 208.967 77.8662 210.274 76.9781C211.58 76.09 214.559 73.0441 214.559 73.0441C213.939 73.1693 213.297 73.0606 212.744 72.7368C216.619 70.2582 217.923 66 217.923 66C218.095 66.3862 218.294 66.7586 218.517 67.1144C218.555 67.1785 218.597 67.2427 218.638 67.3068C218.679 67.371 218.736 67.4655 218.787 67.5432C218.927 67.756 219.077 67.9721 219.229 68.1848C219.261 68.2287 219.29 68.2726 219.321 68.3131L219.56 68.6508C219.671 68.7994 219.782 68.9446 219.897 69.0898C220.364 69.6808 220.851 70.2616 221.334 70.7951L221.652 71.1328L222.218 71.7406L222.383 71.9162L222.612 72.156L222.828 72.3789C223.566 73.1353 224.077 73.6182 224.077 73.6182C223.158 73.6999 222.234 73.6999 221.315 73.6182C223.54 77.6704 227.381 79.9058 228.398 80.8311C229.415 81.7563 227.053 81.9488 227.053 81.9488C227.053 81.9488 228.869 82.5263 229.015 83.492C229.161 84.4578 224.246 83.492 224.246 83.492C226.208 86.1935 232 90.5834 232 90.5834C231.882 90.6847 231.762 90.7826 231.641 90.8772L231.371 91.0731C231.285 91.1338 231.192 91.1912 231.103 91.2487C230.948 91.3483 230.788 91.4396 230.623 91.5222C230.544 91.5661 230.461 91.61 230.379 91.6471C230.296 91.6843 230.223 91.7214 230.147 91.7518C230.07 91.7822 229.978 91.8261 229.892 91.8599L229.625 91.9612C229.438 92.0287 229.25 92.0861 229.062 92.1368L228.795 92.2043L228.525 92.2651L228.252 92.3191C228.071 92.3495 227.892 92.3731 227.718 92.3934L227.915 92.4981L228.198 92.6568L228.35 92.7446L228.668 92.9269C228.875 93.0519 229.082 93.1836 229.282 93.3187C229.345 93.3592 229.409 93.3997 229.469 93.4436L229.638 93.5584C230.203 93.9434 230.735 94.3808 231.227 94.8652C231.269 94.9058 231.307 94.9497 231.345 94.9902L231.44 95.0915C231.578 95.2495 231.703 95.4189 231.816 95.598C231.803 95.6419 231.825 95.6791 231.844 95.7162Z" stroke="#327BED" stroke-linecap="round" stroke-linejoin="round"/>
<path opacity="0.25" d="M80 74C80 72.5663 80 71.3797 80 70" stroke="#327BED" stroke-linecap="round" stroke-linejoin="round"/>
<path opacity="0.25" d="M80.8567 67.4889C82.4796 68.3778 86.1555 69.6222 84.7233 67.8444C84.7233 67.8444 89.8938 68.5841 90.889 67.4889C91.8843 66.3936 85.781 63.0159 84.4112 63.5206C83.0414 64.0254 87.8998 65.2984 91 62.8698C91 62.8698 86.0307 59.4921 84.3488 57.419C84.3488 57.419 88.5552 58.1587 88.4304 57.419C88.3055 56.6794 86.7485 56.2349 86.7485 56.2349C86.7485 56.2349 88.7737 56.0857 87.8998 55.3746C87.0259 54.6635 83.7384 52.946 81.8242 49.8349C82.6122 49.8987 83.4048 49.8987 84.1927 49.8349C84.1927 49.8349 80.1111 46.4 78.9286 44C78.9286 44 77.8085 47.2571 74.5072 49.1238C74.9775 49.3732 75.5308 49.4578 76.0642 49.3619C76.0642 49.3619 73.5085 51.7016 72.3884 52.3841C71.2683 53.0667 70.3701 53.5333 71.4902 53.8286C72.6103 54.1238 74.5696 53.2444 74.5696 53.2444C74.5696 53.2444 72.2323 56.146 71.5492 56.9175C72.2229 57.0704 72.9119 57.1597 73.6056 57.1841C73.6056 57.1841 70.3944 60.1714 67.471 61.746C66.7532 62.1302 68.9969 63.4635 70.8972 62.8127C70.8972 62.8127 68.9344 64.5302 72.7351 63.1683C72.7351 63.1683 70.058 65.5968 68.9656 66.3683C67.8733 67.1397 65.7891 68.5905 67.9253 69.0921C70.0615 69.5937 73.0507 68.7143 74.632 67.673C73.5917 68.5619 73.394 69.5778 75.7868 69.2857C78.1796 68.9936 79.747 67.3079 79.747 67.3079C79.747 67.3079 79.9135 73.0222 80.4614 74" stroke="#327BED" stroke-linecap="round" stroke-linejoin="round"/>
</svg>
