<svg width="282" height="282" viewBox="0 0 282 282" fill="none" xmlns="http://www.w3.org/2000/svg">
<circle cx="141" cy="141" r="141" fill="white"/>
<g opacity="0.25">
<path d="M139.905 192.756C138.905 195.038 134.839 195.95 133.292 196.233C131.745 196.516 128.948 196.795 126.798 197.242C124.649 197.689 118.288 199.77 116.075 199.943C113.861 200.117 107.126 198.36 105.419 197.995C103.712 197.63 95.8632 196.448 95.667 195.782C95.3065 194.559 98.1084 193.984 96.9904 191.601C95.9363 189.352 104.264 193.911 107.737 193.76C110.968 193.623 111.411 192.295 114.29 193.45C116.896 194.49 121.856 194.481 126.055 192.665L131.179 191.643C130.907 191.886 130.612 192.103 130.299 192.291C134.241 189.845 137.641 188.708 139.252 187.905C139.396 187.833 139.536 187.754 139.672 187.668C140.096 189.178 140.502 191.387 139.905 192.756Z" fill="#E3F0FF"/>
<path d="M121.414 174.343C122.901 177.117 127.634 186.235 126.26 187.577C124.658 189.128 116.608 177.423 116.371 177.081C116.408 177.423 117.612 185.642 114.372 183.168C108.508 178.696 106.505 163.724 106.505 163.724C100.335 159.617 98.9116 151.576 101.91 152.511C103.459 152.942 104.941 153.586 106.313 154.423C106.313 154.423 101.02 145.968 103.94 142.81C106.861 139.652 108.645 149.938 110.717 151.503C111.899 152.416 112.999 154.008 113.752 155.222L113.583 155.359C112.67 156.034 111.616 158.179 111.99 160.379C112.994 159.868 114.044 159.357 115.139 158.855C115.208 158.833 115.283 158.832 115.352 158.852C115.422 158.873 115.485 158.913 115.532 158.969C115.951 159.334 116.321 160.338 115.86 160.986C115.421 161.345 114.949 161.661 114.45 161.93L113.081 162.765C113.552 163.345 114.119 163.84 114.756 164.23C116.225 165.143 118.37 165.818 121.427 166.056C122.636 167.493 123.967 168.823 125.407 170.03C130.582 174.233 128.104 179.933 124.617 177.332C123.416 176.489 122.338 175.483 121.414 174.343Z" fill="#E3F0FF"/>
<path d="M61.0035 122.087C60.9784 124.165 60.2282 126.169 58.8824 127.752C57.5367 129.335 55.6801 130.398 53.6336 130.758C51.8995 128.932 51.037 127.107 51.5709 125.478C52.835 121.594 53.9119 119.673 56.7686 118.505C57.7323 118.116 58.7277 117.81 59.744 117.592C60.5734 118.944 61.0096 120.501 61.0035 122.087Z" fill="#E3F0FF"/>
<path d="M155.662 130.516C153.964 132.98 151.432 134.541 148.607 134.541C144.587 134.541 141.164 131.383 139.868 126.961C143.062 127.481 145.527 128.818 148.21 129.293C149.214 129.471 152.093 129.95 155.662 130.516Z" fill="#E3F0FF"/>
<path d="M87.8273 153.652C87.7817 154.716 87.1519 156.016 86.4993 157.102C86.399 155.359 86.4993 153.451 86.4993 153.451C85.8285 149.705 81.2195 147.679 79.2983 146.99C78.1839 145.766 76.8935 144.716 75.4696 143.873C71.8189 141.769 74.6254 138.26 78.2624 140.304C81.8995 142.349 81.3883 142.714 82.0364 140.61C82.6844 138.506 84.7744 140.332 86.2666 143.444C87.7588 146.556 87.9323 151.389 87.8273 153.652Z" fill="#E3F0FF"/>
<path d="M75.6884 131.857C75.7204 134.814 74.1141 136.065 73.6395 135.964C73.2653 135.891 72.7268 133.414 72.4165 131.657C73.4387 131.734 74.5339 131.798 75.6884 131.857Z" fill="#E3F0FF"/>
<path d="M67.187 141.395L66.9862 141.304C64.9874 140.391 65.2156 138.648 64.3988 138.214C63.5819 137.781 62.6601 137.274 61.8204 136.786C63.55 136.088 66.3838 134.504 66.7535 131.178C66.7535 131.178 70.0711 131.383 70.1076 131.556C70.1441 131.73 71.3123 139.008 67.187 141.395Z" fill="#E3F0FF"/>
<path d="M181.217 154.693C180.947 154.941 180.639 155.144 180.304 155.295C179.46 149.504 177.566 133.126 183.923 135.673C183.467 137.498 182.025 141.244 181.678 146.597C181.39 151.051 182.586 153.237 181.217 154.693Z" fill="#E3F0FF"/>
<path d="M220.791 138.515C219.75 141.541 218.135 144.261 217.733 145.128C216.976 146.78 216.907 147.811 217.802 149.121C216.017 149.577 211.627 149.212 211.627 149.212H211.486C209.912 147.122 210.149 144.17 210.715 143.576C211.477 142.773 218.258 141.295 219.622 139.611C220.827 138.146 220.809 138.452 220.791 138.515Z" fill="#E3F0FF"/>
<path d="M174.075 134.267C164.652 135.285 160.449 141.194 164.889 140.418C169.329 139.643 171.324 138.265 171.324 138.265C171.324 138.265 168.681 142.226 171.054 142.203C173.427 142.18 176.923 137.37 177.092 136.553C177.334 135.38 178.931 133.738 174.075 134.267Z" fill="#E3F0FF"/>
<path d="M144.217 153.296C144.29 144.854 147.165 140.519 149.538 142.801C151.911 145.082 148.205 149.577 148.849 149.883C149.492 150.189 152.623 147.145 152.956 149.135C153.289 151.124 149.027 156.669 146.859 156.527C144.692 156.386 144.217 153.296 144.217 153.296Z" fill="#E3F0FF"/>
<path d="M146.951 160.31C146.887 160.94 145.125 162.3 144.669 165.563C144.372 167.685 144.258 169.131 144.048 170.085C140.69 170.085 136.062 166.526 127.752 164.454C123.006 163.272 120.209 163.404 118.626 163.751C118.543 161.457 118.169 159.183 117.512 156.983C120.852 153.15 127.83 142.65 128.464 130.174L129.445 127.216L133.301 128.23C134.83 128.398 136.295 128.522 137.5 128.631C136.774 137.251 138.116 150.932 146.567 159.731C146.663 159.927 146.804 160.119 146.951 160.31Z" fill="#E3F0FF"/>
<path d="M119.7 90.1772C117.085 91.6123 114.566 93.2143 112.157 94.9733C111.363 95.4621 110.722 96.1621 110.304 96.9949C108.022 98.4597 103.459 101.198 100.976 102.699C100.461 94.0652 104.659 90.6563 108.675 88.7853C111.442 87.5879 114.558 87.4755 117.405 88.4704C118.24 88.938 119.012 89.5117 119.7 90.1772Z" fill="#FF523B" stroke="#FF523B" stroke-linecap="round" stroke-linejoin="round"/>
<path d="M122.979 121.804L170.785 27.2964" stroke="#327BED" stroke-linecap="round" stroke-linejoin="round"/>
<path d="M171.351 225.754L120.734 131.625" stroke="#327BED" stroke-linecap="round" stroke-linejoin="round"/>
<path d="M154.749 176.716C181.644 177.065 208.433 180.146 234.705 185.911" stroke="#327BED" stroke-linecap="round" stroke-linejoin="round"/>
<path d="M82.0179 88.8384C80.7265 90.5816 59.4611 91.444 52.0684 89.8788V89.1669C55.3905 82.4131 61.4553 86.1916 61.4553 86.1916C61.5694 82.299 66.4385 81.2175 71.011 82.8694C71.3519 83.0006 71.6841 83.153 72.0058 83.3258C73.8312 80.7931 78.2075 77.9638 82.5382 79.4332C82.8899 79.5529 83.2342 79.6931 83.5695 79.853C85.372 82.9288 83.136 87.3142 82.0179 88.8384Z" fill="#E3F0FF"/>
<path d="M194.592 75.1437L191.425 76.604C191.425 76.604 171.415 78.1008 166.482 76.604C163.046 71.5432 168.385 66.3455 173.199 66.5646C175.139 66.6352 177.031 67.1889 178.703 68.1754C179.153 68.4416 179.579 68.747 179.976 69.0881C180.724 69.7183 181.336 70.4947 181.774 71.3698C186.282 70.2061 190.764 71.1234 193.689 72.9259C194.189 73.5674 194.502 74.3351 194.592 75.1437Z" fill="#E3F0FF"/>
<path d="M217.797 149.139C216.013 149.595 211.623 149.23 211.623 149.23H211.482C209.83 149.427 193.871 151.329 184.393 151.968" stroke="#327BED" stroke-linecap="round" stroke-linejoin="round"/>
<path d="M227.796 103.715H228.991C229.308 103.715 229.612 103.841 229.837 104.065C230.061 104.289 230.187 104.594 230.187 104.911C230.187 105.228 230.061 105.532 229.837 105.756C229.612 105.98 229.308 106.106 228.991 106.106H227.796V103.715Z" fill="#327BED" stroke="#327BED" stroke-linecap="round" stroke-linejoin="round"/>
<path d="M226.796 155.998L246.985 162.291" stroke="#327BED" stroke-linecap="round" stroke-linejoin="round"/>
<path d="M221.553 156.532C223.072 156.833 225.751 157.444 226.116 157.225C226.481 157.006 227.348 154.98 227.056 154.487C226.764 153.995 223.214 152.128 223.214 152.128" stroke="#327BED" stroke-linecap="round" stroke-linejoin="round"/>
<path d="M227.599 97.6778L248.208 92.9273" stroke="#327BED" stroke-linecap="round" stroke-linejoin="round"/>
<path d="M222.411 96.7467C223.949 96.5641 226.664 96.1671 226.974 96.3998C227.285 96.6326 228.033 98.7317 227.704 99.2063C227.376 99.6809 223.693 101.269 223.693 101.269" stroke="#327BED" stroke-linecap="round" stroke-linejoin="round"/>
<path d="M226.372 113.097L224.697 113.257L224.478 112.513C224.236 111.688 224.041 110.85 223.894 110.003L226.062 109.798L226.372 113.097Z" stroke="#327BED" stroke-linecap="round" stroke-linejoin="round"/>
<path d="M219.125 110.455C219.293 111.549 219.387 112.653 219.408 113.759L197.759 115.817L197.445 112.513L219.125 110.455Z" stroke="#327BED" stroke-linecap="round" stroke-linejoin="round"/>
<path d="M217.884 123.434C217.717 123.917 217.677 124.436 217.77 124.939H123.787C123.684 124.688 123.564 124.444 123.426 124.209C123.599 123.987 123.695 123.715 123.7 123.434H217.884Z" fill="#327BED" stroke="#327BED" stroke-linecap="round" stroke-linejoin="round"/>
<path d="M231.013 123.434V124.939H228.672C228.576 124.693 228.371 124.186 228.088 123.434H231.013Z" fill="#327BED" stroke="#327BED" stroke-linecap="round" stroke-linejoin="round"/>
<path d="M224.487 140.656C223.433 141.934 224.25 142.974 225.952 143.312L224.323 143.421C223.123 143.836 222.698 145.822 225.185 146.616C225.186 146.628 225.186 146.64 225.185 146.652C223.323 150.161 224.546 150.563 224.428 152.918C224.291 155.601 221.124 156.774 219.609 160.557C218.094 164.34 218.368 166.891 218.368 166.891L215.999 166.211C216.77 164.23 218.112 159.945 216.779 156.765C216.779 156.765 221.188 152.361 220.289 151.051C219.39 149.741 219.463 148.71 220.22 147.058C220.782 145.844 223.725 141.012 224.14 136.786C224.878 137.02 225.662 137.065 226.422 136.918C226.473 136.972 226.529 137.019 226.591 137.06L225.427 137.594C225.212 137.778 225.052 138.017 224.963 138.285C224.873 138.553 224.859 138.841 224.921 139.117C224.983 139.393 225.119 139.646 225.314 139.851C225.509 140.055 225.757 140.203 226.029 140.277H226.075L224.487 140.656Z" fill="#FF523B" stroke="#FF523B" stroke-linecap="round" stroke-linejoin="round"/>
<path d="M224.487 140.656C223.433 141.933 224.25 142.974 225.952 143.312L224.323 143.421C223.123 143.836 222.698 145.821 225.185 146.615C225.186 146.628 225.186 146.64 225.185 146.652C223.323 150.161 224.546 150.563 224.428 152.918C224.291 155.601 221.124 156.774 219.609 160.557C218.094 164.34 218.367 166.891 218.367 166.891L215.999 166.211L215.848 166.17L213.065 165.376C213.065 165.376 216.095 159.11 214.306 154.843C214.306 154.843 216.465 152.685 217.45 150.942C217.879 150.193 218.085 149.522 217.815 149.116C216.903 147.806 216.989 146.775 217.747 145.123C218.148 144.256 219.764 141.536 220.804 138.511" stroke="#FF523B" stroke-linecap="round" stroke-linejoin="round"/>
<path d="M228.745 125.113C228.745 125.113 228.699 125.428 228.626 125.98C228.626 126.057 228.599 126.14 228.59 126.226C228.544 126.555 228.489 126.947 228.425 127.39C228.361 127.833 228.307 128.22 228.238 128.69C228.17 129.161 228.092 129.717 228.01 130.274C227.106 131.304 226.434 132.517 226.039 133.829C225.925 133.738 225.801 133.637 225.674 133.523C225.546 133.409 225.518 133.386 225.436 133.309C225.272 133.153 225.099 132.98 224.916 132.779C224.865 132.732 224.818 132.682 224.775 132.629C224.629 132.474 224.478 132.3 224.318 132.118C223.817 131.574 223.137 131.229 222.402 131.146C220.398 127.951 219.755 126.719 220.476 125.035C221.302 123.109 222.758 116.429 221.165 110.373C219.572 104.317 217.377 101.493 217.377 101.493C217.377 101.493 218.682 97.4312 216.551 91.8548L219.33 91.1064C219.97 93.1725 221.016 95.0901 222.406 96.7467C225.299 99.9822 222.132 104.527 224.473 112.513C226.814 120.499 228.745 125.113 228.745 125.113Z" fill="#FF523B" stroke="#FF523B" stroke-linecap="round" stroke-linejoin="round"/>
<path d="M217.537 89.0026L215.771 89.459C209.013 66.8884 196.098 55.4297 183.147 46.4125C171.821 38.5269 170.238 31.5541 169.512 24.5082C169.499 24.3886 169.51 24.2676 169.545 24.1523C169.579 24.0371 169.636 23.9297 169.712 23.8364C169.788 23.7431 169.881 23.6657 169.987 23.6087C170.093 23.5517 170.209 23.5162 170.329 23.5042C170.452 23.4924 170.576 23.5055 170.693 23.5429C170.811 23.5803 170.92 23.6411 171.013 23.7217C171.106 23.8023 171.182 23.9011 171.237 24.0119C171.291 24.1228 171.322 24.2435 171.328 24.3667C172.008 30.97 173.5 37.5093 184.188 44.9522C197.422 54.1657 210.614 65.8799 217.533 89.0118C217.533 88.9981 217.533 88.9981 217.537 89.0026Z" fill="#FF523B"/>
<path d="M216.716 166.43C214.329 174.365 207.023 187.681 199.859 195.01C196.664 198.187 193.273 201.159 189.705 203.909C181.829 210.229 175.025 215.687 171.301 228.976C171.248 229.168 171.133 229.339 170.974 229.46C170.815 229.581 170.62 229.647 170.42 229.646C170.337 229.645 170.254 229.633 170.174 229.61C169.942 229.544 169.745 229.389 169.627 229.179C169.509 228.968 169.479 228.72 169.544 228.487C173.423 214.633 180.779 208.732 188.564 202.476C192.074 199.771 195.411 196.848 198.553 193.723C205.554 186.568 212.7 173.585 214.982 165.923L215.849 166.17L215.999 166.211L216.716 166.43Z" fill="#FF523B"/>
<path d="M247.304 91.7271C246.104 91.7865 246.665 94.7481 247.943 94.3511C248.609 94.1412 251.416 92.941 251.388 92.398C251.361 91.8549 248.504 91.6724 247.304 91.7271Z" fill="#327BED" stroke="#327BED" stroke-linecap="round" stroke-linejoin="round"/>
<path d="M231.132 122.252C229.972 121.887 230.023 126.263 231.132 125.902C232.332 125.533 234.686 124.917 234.705 124.168C234.723 123.42 232.487 122.681 231.132 122.252Z" fill="#327BED" stroke="#327BED" stroke-linecap="round" stroke-linejoin="round"/>
<path d="M228.745 125.113C228.745 125.113 228.699 125.428 228.626 125.98C228.626 126.057 228.599 126.14 228.59 126.226C228.544 126.555 228.489 126.947 228.425 127.39C228.361 127.833 228.307 128.22 228.238 128.691C228.17 129.161 228.092 129.717 228.01 130.274C227.106 131.304 226.434 132.517 226.039 133.829C225.925 133.738 225.801 133.637 225.674 133.523C225.546 133.409 225.518 133.386 225.436 133.309C225.272 133.154 225.099 132.98 224.916 132.779C224.865 132.732 224.818 132.682 224.775 132.629C224.629 132.474 224.478 132.3 224.318 132.118C223.817 131.574 223.137 131.229 222.402 131.146C221.962 131.079 221.517 131.057 221.074 131.082C221.019 130.972 220.955 130.863 220.891 130.758C218.153 126.35 217.177 125.044 218.002 123.114C218.828 121.184 220.284 114.508 218.692 108.452C217.099 102.396 214.904 99.5715 214.904 99.5715C214.904 99.5715 216.209 95.5101 214.078 89.9336L218.696 88.7106C218.854 89.5288 219.068 90.3353 219.335 91.1247C219.975 93.1908 221.02 95.1084 222.411 96.765C225.304 100 222.137 104.546 224.478 112.532C226.819 120.517 228.745 125.113 228.745 125.113Z" stroke="#FF523B" stroke-linecap="round" stroke-linejoin="round"/>
<path d="M245.994 163.418C244.803 163.272 245.588 160.356 246.829 160.849C247.477 161.109 250.188 162.514 250.12 163.057C250.051 163.601 247.185 163.55 245.994 163.418Z" fill="#327BED" stroke="#327BED" stroke-linecap="round" stroke-linejoin="round"/>
<path d="M228.318 108.26L225.929 108.487L226.493 114.438L228.883 114.211L228.318 108.26Z" fill="#327BED" stroke="#327BED" stroke-linecap="round" stroke-linejoin="round"/>
<path d="M229.24 120.916C229.747 120.868 229.748 116.507 229.242 111.176C228.736 105.844 227.915 101.561 227.408 101.609C226.902 101.657 226.901 106.018 227.407 111.35C227.913 116.681 228.733 120.965 229.24 120.916Z" fill="white" stroke="#327BED" stroke-linecap="round" stroke-linejoin="round"/>
<path d="M125.366 121.275C124.748 122.16 124.465 123.235 124.565 124.309C124.665 125.384 125.143 126.388 125.913 127.143L133.215 124.209L125.366 121.275Z" fill="#327BED" stroke="#327BED" stroke-linecap="round" stroke-linejoin="round"/>
<path d="M184.01 135.257C184.01 135.257 211.166 138.036 213.215 137.361C215.264 136.686 217.847 131.798 219.047 131.429C219.705 131.231 220.384 131.114 221.069 131.082C221.513 131.057 221.958 131.079 222.397 131.146C223.132 131.229 223.812 131.574 224.314 132.118C224.469 132.3 224.619 132.474 224.77 132.629C224.816 132.679 224.861 132.734 224.911 132.779C225.094 132.98 225.267 133.154 225.432 133.309L225.669 133.523C225.797 133.637 225.92 133.738 226.034 133.829C226.148 133.92 226.189 133.948 226.262 134.002C226.492 134.173 226.735 134.325 226.988 134.459L227.129 134.532L227.362 134.655C227.498 134.72 227.614 134.822 227.694 134.949C227.775 135.077 227.818 135.225 227.818 135.376C227.855 135.65 227.801 135.929 227.665 136.17C227.528 136.411 227.316 136.6 227.061 136.708C226.86 136.812 226.647 136.888 226.426 136.937C225.667 137.084 224.882 137.038 224.145 136.804C223.905 136.735 223.671 136.645 223.447 136.535C222.657 136.152 222.009 135.855 221.566 135.654L220.918 135.376C221.078 138.986 217.929 142.308 215.105 143.864" stroke="#327BED" stroke-linecap="round" stroke-linejoin="round"/>
<path d="M226.039 133.829C226.434 132.517 227.106 131.304 228.01 130.274C228.831 129.412 229.776 129.01 230.68 129.512C232.505 130.516 231.971 133.163 230.68 134.769C229.584 136.138 228.065 137.534 226.965 137.251C226.755 137.198 226.565 137.085 226.417 136.927" stroke="#327BED" stroke-linecap="round" stroke-linejoin="round"/>
<path d="M225.423 137.603C225.208 137.787 225.047 138.026 224.958 138.294C224.869 138.562 224.854 138.85 224.916 139.126C224.978 139.402 225.114 139.655 225.31 139.86C225.505 140.064 225.752 140.212 226.025 140.286C227.248 140.674 230.369 139.414 230.999 138.671C231.629 137.927 231.214 136.115 230.059 135.476" stroke="#327BED" stroke-linecap="round" stroke-linejoin="round"/>
<path d="M224.487 140.656C223.164 142.258 224.788 143.481 227.389 143.43C229.991 143.38 232.82 141.386 229.876 139.428" stroke="#327BED" stroke-linecap="round" stroke-linejoin="round"/>
<path d="M224.327 143.435C223.072 143.868 222.666 146.022 225.555 146.734C228.443 147.446 232.824 145.183 229.178 143.083" stroke="#327BED" stroke-linecap="round" stroke-linejoin="round"/>
<path d="M212.088 147.638C211.176 145.78 211.933 144.302 212.499 143.855" stroke="#327BED" stroke-linecap="round" stroke-linejoin="round"/>
<path d="M146.95 160.31C146.887 160.94 145.125 162.3 144.669 165.563C144.153 169.259 144.185 170.907 143.341 171.495C142.497 172.084 141.269 172.75 139.863 171.952C138.458 171.153 134.981 166.845 121.961 166.106C118.616 165.919 116.307 165.216 114.756 164.253C114.119 163.863 113.552 163.368 113.081 162.788L114.45 161.953C114.949 161.684 115.421 161.367 115.86 161.009C116.316 160.383 115.951 159.357 115.531 158.991C115.485 158.936 115.422 158.896 115.352 158.875C115.283 158.855 115.208 158.856 115.139 158.877C114.044 159.379 112.994 159.89 111.99 160.402C111.616 158.202 112.67 156.057 113.583 155.382C115.582 153.899 125.197 141.915 125.904 127.171L126.885 124.214L130.741 125.227C134.027 125.587 137.016 125.752 137.764 125.966C137.641 126.792 137.532 127.691 137.449 128.659C136.724 137.279 138.066 150.96 146.517 159.758C146.631 159.881 146.75 160.005 146.868 160.123C146.895 160.146 146.916 160.175 146.931 160.207C146.945 160.24 146.952 160.275 146.95 160.31V160.31Z" stroke="#327BED" stroke-linecap="round" stroke-linejoin="round"/>
<path d="M14.3611 199.925C34.7432 192.601 55.7032 186.997 77.0211 183.173" stroke="#327BED" stroke-linecap="round" stroke-linejoin="round"/>
<path d="M137.664 126.756C138.403 126.773 139.139 126.841 139.868 126.961C143.063 127.481 145.527 128.818 148.21 129.293C149.214 129.471 152.094 129.95 155.662 130.516C163.685 131.794 175.198 133.523 176.804 133.291C179.123 132.957 183.544 133.747 184.01 134.527C184.124 134.719 184.069 135.107 183.919 135.695C183.462 137.521 182.02 141.267 181.673 146.62C181.391 151.051 182.586 153.237 181.217 154.693C180.947 154.941 180.639 155.144 180.304 155.295C178.233 156.349 173.678 157.645 171.926 157.741C169.813 157.855 149.867 157.166 145.723 158.85" stroke="#327BED" stroke-linecap="round" stroke-linejoin="round"/>
<path d="M179.424 135.476C178.301 138.844 176.832 147.282 178.452 152.598" stroke="#327BED" stroke-linecap="round" stroke-linejoin="round"/>
<path d="M145.723 152.991C146.818 147.337 148.132 145.758 148.132 145.758" stroke="#327BED" stroke-linecap="round" stroke-linejoin="round"/>
<path d="M146.932 155.094C147.612 153.21 149.542 151.498 149.542 151.498" stroke="#327BED" stroke-linecap="round" stroke-linejoin="round"/>
<path d="M167.422 137.083C169.877 136.293 175.225 135.198 175.225 135.198" stroke="#327BED" stroke-linecap="round" stroke-linejoin="round"/>
<path d="M173.861 137.083C173.14 137.815 172.475 138.601 171.871 139.433" stroke="#327BED" stroke-linecap="round" stroke-linejoin="round"/>
<path d="M118.625 165.668C118.712 162.736 118.332 159.809 117.498 156.997C117.079 155.581 116.531 154.206 115.86 152.89" stroke="#327BED" stroke-linecap="round" stroke-linejoin="round"/>
<path d="M115.86 160.981C115.728 161.164 114.669 161.798 113.063 162.761C107.286 166.224 94.435 173.905 92.3586 179.618C90.9212 179.116 91.0307 176.684 91.5829 176.077C92.135 175.47 97.7754 167.612 111.99 160.356C112.994 159.845 114.044 159.334 115.139 158.832C115.623 158.626 116.472 160.155 115.86 160.981Z" fill="#327BED" stroke="#327BED" stroke-linecap="round" stroke-linejoin="round"/>
<path d="M119.091 92.0739C117.384 90.4836 115.25 89.4245 112.952 89.0258C110.653 88.6271 108.288 88.9061 106.144 89.8288C102.115 91.7043 97.9076 95.1314 98.446 103.825" stroke="#FF523B" stroke-linecap="round" stroke-linejoin="round"/>
<path d="M109.695 98.8915C110.113 98.0587 110.755 97.3588 111.548 96.8699C113.957 95.111 116.476 93.5089 119.091 92.0738C119.707 91.7498 120.337 91.4303 120.971 91.1611C123.947 89.7921 126.995 88.925 129.117 89.7328C136.24 92.4389 123.344 97.162 121.323 97.8693" stroke="#327BED" stroke-linecap="round" stroke-linejoin="round"/>
<path d="M122.769 106.298C123.225 107.927 123.937 107.548 124.54 107.548C126.023 107.548 124.207 110.478 126.023 110.442" stroke="#327BED" stroke-linecap="round" stroke-linejoin="round"/>
<path d="M122.65 110.442C122.65 110.487 122.65 113.303 123.787 113.814" stroke="#327BED" stroke-linecap="round" stroke-linejoin="round"/>
<path d="M107.609 120.016C105.492 117.519 105.624 116.328 105.624 116.328C105.624 116.328 107.952 118.117 109.864 118.742L107.609 120.016Z" fill="#327BED" stroke="#327BED" stroke-linecap="round" stroke-linejoin="round"/>
<path d="M102.663 108.593C99.2949 106.312 97.1547 108.137 97.2414 110.004C97.3281 111.87 98.7884 113.239 101.933 112.965C103 115.944 103.675 119.049 103.94 122.201" stroke="#327BED" stroke-linecap="round" stroke-linejoin="round"/>
<path d="M99.1536 110.441C100.285 109.529 102.001 110.273 102.416 111.103" stroke="#327BED" stroke-linecap="round" stroke-linejoin="round"/>
<path d="M106.409 100.931C106.409 100.931 107.267 105.709 103.772 108.817C103.206 109.319 105.935 109.41 105.305 110.441C104.269 112.148 103.868 113.7 105.62 112.792" stroke="#327BED" stroke-linecap="round" stroke-linejoin="round"/>
<path d="M109.079 102.282C110.831 100.863 112.273 100.653 113.483 100.913" stroke="#327BED" stroke-linecap="round" stroke-linejoin="round"/>
<path d="M116.535 110.026C118.616 110.195 119.844 109.538 119.771 109.2C119.698 108.863 117.489 103.2 118.05 101.315C118.612 99.4302 121.204 99.5944 121.204 99.5944" stroke="#327BED" stroke-linecap="round" stroke-linejoin="round"/>
<path d="M113.144 106.014C113.382 105.993 113.538 105.541 113.491 105.003C113.445 104.466 113.214 104.047 112.975 104.068C112.736 104.089 112.581 104.541 112.628 105.078C112.674 105.616 112.905 106.034 113.144 106.014Z" fill="#327BED" stroke="#327BED" stroke-linecap="round" stroke-linejoin="round"/>
<path d="M120.857 105.145C121.096 105.124 121.251 104.672 121.205 104.134C121.158 103.597 120.927 103.178 120.688 103.199C120.45 103.22 120.294 103.672 120.341 104.209C120.387 104.747 120.619 105.165 120.857 105.145Z" fill="#327BED" stroke="#327BED" stroke-linecap="round" stroke-linejoin="round"/>
<path d="M114.651 114.626C115.564 114.261 117.749 113.481 117.749 113.481" stroke="#327BED" stroke-linecap="round" stroke-linejoin="round"/>
<path d="M75.6978 114.864C78.308 112.267 83.9119 109.013 83.9712 108.018C84.0305 107.024 80.7494 107.375 81.5571 104.318C82.3649 101.26 86.2894 98.6817 89.5111 96.8472C92.7329 95.0128 96.7259 94.8165 98.4006 96.2996" stroke="#327BED" stroke-linecap="round" stroke-linejoin="round"/>
<path d="M87.9641 101.552C91.3091 98.5356 94.1749 97.4769 97.2415 98.4398" stroke="#327BED" stroke-linecap="round" stroke-linejoin="round"/>
<path d="M83.4143 116.041C87.5487 114.868 88.8904 113.759 88.7581 112.13C88.6257 110.501 86.8323 110.939 86.417 111.646C85.5819 113.061 88.5983 114.152 89.9673 112.13C91.3957 110.026 89.9673 103.811 97.4331 103.3" stroke="#327BED" stroke-linecap="round" stroke-linejoin="round"/>
<path d="M92.5275 116.885C94.6905 116.041 94.9324 114.781 94.0882 113.211C93.244 111.642 92.5366 107.763 98.4006 104.92" stroke="#327BED" stroke-linecap="round" stroke-linejoin="round"/>
<path d="M97.4376 120.002C98.7153 118.687 99.2264 117.551 98.4005 114.955" stroke="#327BED" stroke-linecap="round" stroke-linejoin="round"/>
<path d="M109.503 121.061C112.177 120.308 115.326 119.459 116.535 119.751C117.065 119.879 117.945 120.157 118.872 120.472C120.04 120.869 121.286 121.33 121.998 121.622C122.09 121.658 122.179 121.699 122.267 121.745C123.093 122.147 123.704 122.754 123.7 123.433C123.694 123.715 123.598 123.987 123.426 124.209C123.564 124.444 123.684 124.688 123.787 124.939C124.042 125.551 124.293 126.432 124.028 127.144C123.572 128.357 122.075 128.809 122.075 128.809C122.988 129.375 122.646 132.086 120.081 131.547C121.208 132.077 121.213 133.655 119.625 133.655H118.078" stroke="#327BED" stroke-linecap="round" stroke-linejoin="round"/>
<path d="M103.215 131.607C105.282 132.871 106.208 133.537 107.18 133.646C108.152 133.756 115.052 133.167 116.362 133.336" stroke="#327BED" stroke-linecap="round" stroke-linejoin="round"/>
<path d="M63.1894 130.922C63.1894 130.922 66.758 131.314 72.4166 131.67C73.4388 131.734 74.534 131.798 75.6885 131.857C78.4266 131.999 81.5251 132.122 84.8153 132.191C95.4298 132.405 98.3321 132.82 100.764 132.948C103.197 133.076 104.118 132.191 104.118 132.191" stroke="#327BED" stroke-linecap="round" stroke-linejoin="round"/>
<path d="M102.06 123.534C103.489 122.79 109.941 118.263 111.283 118.35C112.625 118.436 114.14 119.751 114.14 119.751C128.688 117.642 120.528 95.3275 120.528 95.3275C116.677 95.0765 112.52 97.0889 109.69 98.8915C106.952 100.648 100.961 104.235 99.1489 105.321" stroke="#327BED" stroke-linecap="round" stroke-linejoin="round"/>
<path d="M103.94 122.201C100.367 123.598 88.8812 118.172 75.6976 117.058C68.1908 116.419 63.0707 116.862 59.7257 117.611C58.7095 117.828 57.714 118.134 56.7504 118.523C53.8937 119.691 52.8167 121.613 51.5527 125.496C51.0188 127.13 51.8812 128.937 53.6153 130.776C55.5183 132.807 58.4845 134.883 61.8021 136.8C62.6417 137.288 63.5042 137.762 64.3804 138.228C65.2566 138.693 64.9691 140.4 66.9678 141.317L67.1686 141.409C69.0442 142.18 70.1942 141.495 70.906 143.804C71.6499 146.2 72.5671 146.132 74.2693 146.132C75.9714 146.132 80.9227 146.588 84.3087 149.901" stroke="#327BED" stroke-linecap="round" stroke-linejoin="round"/>
<path d="M102.781 134.614C104.319 136.439 106.122 138.881 107.002 138.926C107.883 138.972 113.117 134.614 113.117 134.614C113.117 134.614 117.252 138.342 119.05 138.214C120.848 138.087 124.526 131.935 124.526 131.935" stroke="#327BED" stroke-linecap="round" stroke-linejoin="round"/>
<path d="M118.151 121.645C118.251 122.594 118.379 122.726 118.74 122.822C119.1 122.918 123.426 124.191 123.426 124.191" stroke="#327BED" stroke-linecap="round" stroke-linejoin="round"/>
<path d="M116.595 129.717C116.508 130.073 116.595 130.247 116.823 130.338L120.077 131.561" stroke="#327BED" stroke-linecap="round" stroke-linejoin="round"/>
<path d="M117.069 126.003C119.561 126.559 121.765 126.883 121.87 127.148C121.975 127.413 121.751 129.183 121.751 129.183L117.069 126.003Z" fill="#327BED" stroke="#327BED" stroke-linecap="round" stroke-linejoin="round"/>
<path d="M122.267 118.829V121.736C122.18 121.69 122.09 121.649 121.998 121.613C121.286 121.321 120.04 120.86 118.872 120.463V118.829C118.872 117.948 122.267 117.948 122.267 118.829Z" fill="#327BED" stroke="#327BED" stroke-linecap="round" stroke-linejoin="round"/>
<path d="M91.8065 134.121C91.1083 137.854 88.5163 142.034 88.5163 142.034" stroke="#327BED" stroke-linecap="round" stroke-linejoin="round"/>
<path d="M94.3711 132.519C94.4441 135.011 93.7459 139.442 93.7459 139.442" stroke="#327BED" stroke-linecap="round" stroke-linejoin="round"/>
<path d="M63.1894 137.539C63.1894 137.539 68.3597 136.311 68.5925 131.419" stroke="#327BED" stroke-linecap="round" stroke-linejoin="round"/>
<path d="M61.0035 136.216C61.0035 136.216 65.6628 134.673 65.8909 131.196" stroke="#327BED" stroke-linecap="round" stroke-linejoin="round"/>
<path d="M70.9289 131.556C70.9289 131.556 71.7457 134.783 70.9289 137.521" stroke="#327BED" stroke-linecap="round" stroke-linejoin="round"/>
<path d="M73.8996 131.757C74.0935 132.383 74.0935 133.053 73.8996 133.678" stroke="#327BED" stroke-linecap="round" stroke-linejoin="round"/>
<path d="M83.0219 143.426C84.8199 147.779 86.522 148.404 86.522 155.094C86.522 161.784 88.4158 165.376 89.7164 167.835C91.017 170.295 91.5418 176.077 91.5418 176.077" stroke="#327BED" stroke-linecap="round" stroke-linejoin="round"/>
<path d="M77.6599 142.034C77.6599 142.034 81.2513 144.84 81.9997 146.241" stroke="#327BED" stroke-linecap="round" stroke-linejoin="round"/>
<path d="M111.913 159.968C111.913 159.968 107.016 151.685 105.469 145.041" stroke="#327BED" stroke-linecap="round" stroke-linejoin="round"/>
<path d="M103.94 155.204C105.402 157.147 106.989 158.993 108.691 160.73" stroke="#327BED" stroke-linecap="round" stroke-linejoin="round"/>
<path d="M108.508 167.201C109.508 169.419 113.428 178.085 113.428 178.085" stroke="#327BED" stroke-linecap="round" stroke-linejoin="round"/>
<path d="M118.635 167.388C120.62 169.446 124.599 174.037 124.599 174.037" stroke="#327BED" stroke-linecap="round" stroke-linejoin="round"/>
<path d="M111.913 166.256C113.35 168.958 123.636 182.1 124.312 184.542" stroke="#327BED" stroke-linecap="round" stroke-linejoin="round"/>
<path d="M127.355 192.008C126.935 192.24 126.502 192.464 126.059 192.642C121.861 194.467 116.9 194.467 114.295 193.427C111.415 192.272 110.973 193.646 107.742 193.737C104.511 193.828 99.4591 191.168 97.0223 190.68L96.6618 190.597C94.3299 190.036 91.9113 188.535 91.5873 188.156C91.2633 187.777 91.2222 184.921 91.9295 182.926C92.3506 181.878 92.4997 180.74 92.3631 179.618" stroke="#327BED" stroke-linecap="round" stroke-linejoin="round"/>
<path d="M141.547 172.271C140.553 176.405 140.366 178.349 141.251 181.891C142.059 185.121 141.114 186.764 139.699 187.645C139.563 187.731 139.423 187.81 139.279 187.882C137.669 188.685 134.26 189.822 130.326 192.268L130.157 192.373" stroke="#327BED" stroke-linecap="round" stroke-linejoin="round"/>
<path d="M95.0831 190.091C95.0831 190.091 94.2023 195.384 93.9285 195.841C93.6547 196.297 86.4035 210.138 83.0174 219.789" stroke="#327BED" stroke-linecap="round" stroke-linejoin="round"/>
<path d="M139.266 187.882L138.691 194.983C140.869 202.639 141.612 210.631 140.881 218.557" stroke="#327BED" stroke-linecap="round" stroke-linejoin="round"/>
<path d="M96.5981 196.27C99.3087 196.945 106.752 198.054 108.509 198.734" stroke="#327BED" stroke-linecap="round" stroke-linejoin="round"/>
<path d="M122.901 198.479C126.712 197.593 129.29 196.315 132.38 196.27C134.142 196.283 135.876 195.823 137.399 194.937" stroke="#327BED" stroke-linecap="round" stroke-linejoin="round"/>
<path d="M100.933 193.587C100.55 194.326 99.9749 195.448 99.9749 195.448" stroke="#327BED" stroke-linecap="round" stroke-linejoin="round"/>
<path d="M104.584 194.517C104.201 195.64 103.927 196.571 103.927 196.571" stroke="#327BED" stroke-linecap="round" stroke-linejoin="round"/>
<path d="M110.398 196.566C111.219 195.033 111.876 194.047 112.095 194.349C112.314 194.65 112.479 197.219 112.479 197.219" stroke="#327BED" stroke-linecap="round" stroke-linejoin="round"/>
<path d="M117.507 198.479C118 197.566 118.11 195.636 118.11 195.636" stroke="#327BED" stroke-linecap="round" stroke-linejoin="round"/>
<path d="M120.985 196.046C120.684 196.703 120.245 197.497 120.245 197.497" stroke="#327BED" stroke-linecap="round" stroke-linejoin="round"/>
<path d="M126.265 196.708C126.22 195.905 126.22 195.101 126.265 194.298" stroke="#327BED" stroke-linecap="round" stroke-linejoin="round"/>
<path d="M131.188 193.258L130.7 196.411" stroke="#327BED" stroke-linecap="round" stroke-linejoin="round"/>
<path d="M133.292 192.519C133.183 193.751 133.018 195.115 133.018 195.115" stroke="#327BED" stroke-linecap="round" stroke-linejoin="round"/>
<path d="M134.246 194.682C134.702 193.34 135.286 191.428 135.286 191.428C135.286 191.428 135.533 194.394 136.135 194.13C136.738 193.865 137.258 190.798 137.258 190.798" stroke="#327BED" stroke-linecap="round" stroke-linejoin="round"/>
<path d="M49.6497 88.8385C51.4751 91.718 80.5028 90.8829 82.0179 88.8385C83.5329 86.7941 87.0148 79.6113 80.1195 77.2657C74.0411 75.1985 67.7984 81.6055 68.8479 83.7822C69.8975 85.959 73.8677 82.6368 68.5878 80.7293C64.0244 79.0728 59.1462 80.1589 59.0321 84.0469C59.0321 84.0469 52.9628 80.2684 49.6452 87.0222" stroke="#327BED" stroke-linecap="round" stroke-linejoin="round"/>
<path d="M194.597 75.1436C194.232 71.0639 186.675 67.2215 179.122 69.2933C171.57 71.3651 179.487 75.6592 179.853 71.9264C180.218 68.1935 176.152 64.6615 170.785 64.4196C165.419 64.1777 159.404 70.6578 165.597 76.1795C168.033 78.3516 191.425 76.6039 191.425 76.6039" stroke="#327BED" stroke-linecap="round" stroke-linejoin="round"/>
<path d="M98.72 106.371C98.7778 106.754 98.8447 107.147 98.9208 107.548" stroke="#327BED" stroke-linecap="round" stroke-linejoin="round"/>
<path d="M109.709 114.325C111.599 114.325 113.131 112.793 113.131 110.902C113.131 109.012 111.599 107.48 109.709 107.48C107.818 107.48 106.286 109.012 106.286 110.902C106.286 112.793 107.818 114.325 109.709 114.325Z" fill="#E3F0FF"/>
</g>
</svg>
